<svg xmlns="http://www.w3.org/2000/svg" width="28" height="30" viewBox="0 0 28 30">
    <g fill="#2DC3C0" fill-rule="nonzero">
        <path d="M15 5a1 1 0 1 1-2 0 1 1 0 0 1 2 0z"/>
        <path d="M27.808 15.392l-3.75-4.707a.873.873 0 0 0-1.367 0l-3.75 4.707a.882.882 0 0 0-.105.93.875.875 0 0 0 .789.498h1v1.004c0 2.187-1.535 4.254-3.875 4.69V8.378a4.67 4.67 0 0 0 1.875-3.734C18.625 2.084 16.55 0 14 0S9.375 2.084 9.375 4.644c0 1.476.707 2.864 1.875 3.734v14.136c-3.088-.575-3.875-3.405-3.875-4.69V16.82h1a.875.875 0 0 0 .789-.498.882.882 0 0 0-.106-.93l-3.75-4.707a.874.874 0 0 0-1.366 0l-3.75 4.707a.882.882 0 0 0-.106.93.875.875 0 0 0 .79.498h.999v1.004c0 5.552 4.4 10.09 9.881 10.287l1.625 1.632a.87.87 0 0 0 1.238 0l1.625-1.632c5.482-.196 9.881-4.735 9.881-10.287V16.82h1a.875.875 0 0 0 .789-.498.882.882 0 0 0-.106-.93zm-2.558-.33a.877.877 0 0 0-.875.88v1.882c0 4.706-3.813 8.535-8.5 8.535a.874.874 0 0 0-.619.258L14 27.878l-1.256-1.261a.873.873 0 0 0-.619-.258c-4.687 0-8.5-3.829-8.5-8.535v-1.883a.877.877 0 0 0-.875-.879h-.054l1.93-2.42 1.928 2.42H6.5a.877.877 0 0 0-.875.88v1.882c0 3.605 2.904 6.528 6.5 6.528a.877.877 0 0 0 .875-.88V7.907a.88.88 0 0 0-.436-.761 2.902 2.902 0 0 1-1.439-2.5A2.884 2.884 0 0 1 14 1.757a2.884 2.884 0 0 1 2.875 2.886 2.902 2.902 0 0 1-1.439 2.501.88.88 0 0 0-.436.76v15.568c0 .485.392.879.875.879 3.59 0 6.5-2.917 6.5-6.528v-1.883a.877.877 0 0 0-.875-.879h-.054l1.929-2.42 1.929 2.42h-.054z"/>
    </g>
</svg>
