<svg xmlns="http://www.w3.org/2000/svg" width="100" height="70" viewBox="0 0 100 70">
    <g fill="none" fill-rule="evenodd" transform="translate(17 5)">
        <circle cx="12" cy="44.5" r="12" fill="#00B8C9"/>
        <circle cx="54" cy="44.5" r="12" fill="#8EF5FF"/>
        <circle cx="33" cy="12.5" r="12" fill="#FFF"/>
        <path fill="#00FFFB" fill-rule="nonzero" d="M17.18 7.5c-.631.426-1.246.879-1.84 1.357l.919 1.169c.562-.452 1.143-.88 1.741-1.284L17.18 7.5zm-3.003 2.345a27.63 27.63 0 0 0-1.637 1.6l1.069 1.03a26.146 26.146 0 0 1 1.55-1.514l-.982-1.116zm-2.668 2.756a27.71 27.71 0 0 0-1.402 1.813l1.2.87c.419-.59.862-1.162 1.327-1.715l-1.125-.968zm-2.25 3.081a27.681 27.681 0 0 0-1.142 1.992l1.308.695c.334-.643.694-1.272 1.08-1.885l-1.246-.802zm-1.82 3.395c-.315.7-.6 1.411-.856 2.135l1.391.502c.242-.684.512-1.358.809-2.018l-1.345-.619zm-1.319 3.57c-.215.735-.4 1.48-.554 2.234l1.446.302c.146-.712.321-1.417.525-2.112l-1.417-.424zm-.822 3.763c-.111.757-.192 1.521-.24 2.29l1.473.096c.047-.728.123-1.45.228-2.166l-1.461-.22zM5 30.256L5 30.5h1.477l.001-.231-1.477-.013zM47.82 7.5c.631.426 1.246.879 1.84 1.357l-.919 1.169A25.951 25.951 0 0 0 47 8.742l.82-1.242zm3.003 2.345a27.63 27.63 0 0 1 1.637 1.6l-1.069 1.03a26.146 26.146 0 0 0-1.55-1.514l.982-1.116zm2.668 2.756c.492.585.96 1.19 1.402 1.813l-1.2.87a26.218 26.218 0 0 0-1.327-1.715l1.125-.968zm2.25 3.081c.408.648.789 1.312 1.142 1.992l-1.308.695a26.184 26.184 0 0 0-1.08-1.885l1.246-.802zm1.82 3.395c.315.7.6 1.411.856 2.135l-1.391.502a26.128 26.128 0 0 0-.809-2.018l1.345-.619zm1.319 3.57c.215.735.4 1.48.554 2.234l-1.446.302a26.185 26.185 0 0 0-.525-2.112l1.417-.424zm.822 3.763c.111.757.192 1.521.24 2.29l-1.473.096a26.508 26.508 0 0 0-.228-2.166l1.461-.22zM60 30.256L60 30.5h-1.477l-.001-.231 1.477-.013zM46 57.628c-.686.34-1.387.651-2.1.933l-.546-1.39a26.108 26.108 0 0 0 1.986-.883l.66 1.34zm-3.539 1.458c-.726.241-1.463.453-2.206.634l-.351-1.452c.704-.171 1.4-.371 2.088-.6l.469 1.418zm-3.724.958c-.753.138-1.511.246-2.273.321l-.147-1.486a26.1 26.1 0 0 0 2.15-.305l.27 1.47zm-3.795.43c-.765.033-1.53.035-2.296.004l.06-1.493c.723.03 1.448.028 2.171-.004l.065 1.493zm-3.85-.103a27.29 27.29 0 0 1-2.274-.319l.267-1.47c.713.131 1.43.232 2.151.302l-.144 1.487zm-3.747-.631c-.743-.18-1.48-.39-2.208-.632l.468-1.418c.689.229 1.385.428 2.088.597l-.348 1.453zm-3.664-1.162c-.71-.28-1.41-.592-2.098-.934l.66-1.34c.652.324 1.314.619 1.985.885l-.547 1.39zm-3.47-1.663L20 56.794l.744-1.294.2.115-.733 1.3z"/>
    </g>
</svg>
