<svg xmlns="http://www.w3.org/2000/svg" width="80" height="80" viewBox="0 0 80 80">
    <g fill="none" fill-rule="evenodd">
        <path fill="#00B8C9" fill-rule="nonzero" d="M60.473 19.02c-3.253-3.143-7.245-5.49-11.64-6.845l-.439-.13c-.57-.167-1.173.142-1.347.69-.174.547.148 1.126.718 1.293l.403.12c14.171 4.403 21.941 18.997 17.355 32.599a25.519 25.519 0 0 1-3.951 7.39c-1.649-.738-3.599-.432-4.917.77a4.033 4.033 0 0 0-.02 5.869c1.684 1.625 4.421 1.633 6.115.018 1.495-1.426 1.7-3.678.488-5.332 8.63-11.123 7.452-26.637-2.765-36.443zm.764 40.284a2.277 2.277 0 0 1-3.052 0 2.013 2.013 0 0 1 0-2.93c.842-.809 2.21-.809 3.052 0 .843.809.843 2.12 0 2.93zM30.034 16c.136 0 .271-.029.397-.086.61-.272 1.239-.524 1.859-.745.541-.192.836-.82.658-1.404-.178-.584-.762-.9-1.304-.709-.675.24-1.352.51-2.008.805-.527.237-.776.888-.556 1.455.16.415.537.684.954.684zM41.938 12.81c.636.038 1.28.098 1.918.18.548.071 1.056-.273 1.134-.769.078-.495-.303-.954-.851-1.025a29.271 29.271 0 0 0-2.068-.194c-.554-.033-1.032.346-1.069.846-.036.5.383.933.936.966v-.005zM36.003 14c.056 0 .11-.004.165-.012a30.545 30.545 0 0 1 1.915-.213c.553-.043.962-.475.913-.964-.049-.489-.537-.85-1.09-.808-.693.055-1.387.133-2.064.231-.547.079-.918.535-.829 1.018.079.43.499.745.99.744V14zM44.846 65.013c-.626.089-1.264.163-1.895.212-.548.021-.974.435-.95.925.023.49.487.87 1.035.85h.087c.682-.053 1.37-.13 2.046-.23.54-.08.906-.536.818-1.019-.078-.48-.577-.811-1.113-.742l-.028.004zM50.576 62.085c-.609.274-1.232.524-1.848.743-.543.18-.848.799-.683 1.385.165.586.738.917 1.28.739a27.26 27.26 0 0 0 2.041-.816c.525-.236.773-.885.555-1.452-.218-.566-.819-.834-1.343-.599h-.002zM38.033 65.189a26.9 26.9 0 0 1-1.908-.182c-.547-.063-1.047.289-1.117.786-.068.485.3.931.83 1.01.678.09 1.372.156 2.063.197h.067c.552.016 1.013-.377 1.031-.878.018-.501-.414-.92-.966-.937v.004zM30.911 64.512c-13.356-4.96-20.185-19.867-15.253-33.297a25.978 25.978 0 0 1 3.42-6.387c2.045 1.001 4.51.146 5.505-1.91a4.157 4.157 0 0 0-.793-4.742 4.204 4.204 0 0 0-5.833 0 4.147 4.147 0 0 0-.457 5.308c-9.175 12.412-6.607 29.954 5.737 39.18a27.807 27.807 0 0 0 6.96 3.793c.486.18.976.346 1.47.498A1.033 1.033 0 0 0 33 65.962c0-.455-.295-.857-.727-.99-.455-.138-.91-.291-1.361-.46zm-11.497-44.87a2.055 2.055 0 0 1 2.917-.05c.82.796.842 2.109.05 2.933l-.05.051c-.816.784-2.101.784-2.917 0a2.083 2.083 0 0 1 0-2.933z"/>
        <path fill="#C5C5C5" d="M47.19 56.006l-.04.018A17.94 17.94 0 0 1 40 57.5c-9.941 0-18-8.059-18-18 0-3.091.78-6 2.152-8.542 1.297 12.584 10.783 22.739 23.038 25.048z"/>
        <path fill="#979797" fill-rule="nonzero" d="M56.813 48.088a17.957 17.957 0 0 0 0-17.177c-.012-.027-.027-.052-.04-.079-4.906-9.018-16.395-12.456-25.659-7.679a18.742 18.742 0 0 0-7.888 7.68c-.012.026-.027.05-.039.078a17.954 17.954 0 0 0 0 17.177c.012.028.027.053.04.08 4.907 9.018 16.395 12.456 25.659 7.679 3.36-1.733 6.108-4.408 7.888-7.68.01-.026.027-.05.039-.079zM32.938 24.585l-.683 2.22a43.96 43.96 0 0 0-.905 3.447h-5.302a16.88 16.88 0 0 1 6.89-5.667zm-8.1 7.722h6.114a42.76 42.76 0 0 0-.598 6.165h-7.189a15.938 15.938 0 0 1 1.672-6.165zm-1.673 8.22h7.19c.05 2.067.25 4.127.597 6.166h-6.115a15.938 15.938 0 0 1-1.672-6.166zm2.883 8.221h5.302a43.97 43.97 0 0 0 .905 3.448l.683 2.22a16.874 16.874 0 0 1-6.89-5.668zm12.896 7.14a17.16 17.16 0 0 1-3.525-.578l-1.14-3.704c-.293-.947-.546-1.9-.767-2.858h5.432v7.14zm0-9.195h-5.831a40.826 40.826 0 0 1-.627-6.166h6.458v6.166zm0-8.22h-6.458c.052-2.068.262-4.129.627-6.166h5.831v6.165zm0-8.221h-5.432c.221-.958.474-1.912.766-2.858l1.14-3.704a17.16 17.16 0 0 1 3.526-.58v7.142zm17.891 8.22h-7.349a43.012 43.012 0 0 0-.596-6.165h6.273a15.953 15.953 0 0 1 1.672 6.165zm-2.883-8.22h-5.461a43.764 43.764 0 0 0-.905-3.448l-.711-2.307a16.886 16.886 0 0 1 7.077 5.755zm-12.897-7.14c1.134.067 2.258.246 3.354.535l1.155 3.747c.291.946.543 1.9.765 2.858h-5.274v-7.14zm0 9.195h5.673c.365 2.037.575 4.098.627 6.165h-6.3v-6.165zm4.509 19.3l-1.155 3.747c-1.096.288-2.22.467-3.353.535v-7.14h5.277a44.295 44.295 0 0 1-.769 2.857zm-4.509-4.914v-6.166h6.3a40.882 40.882 0 0 1-.627 6.166h-5.673zm5.82 7.81l.711-2.307c.352-1.141.65-2.292.905-3.448h5.461a16.889 16.889 0 0 1-7.077 5.755zm2.015-7.81c.347-2.039.546-4.1.596-6.166h7.35a15.953 15.953 0 0 1-1.673 6.166H48.89z"/>
    </g>
</svg>
