<svg xmlns="http://www.w3.org/2000/svg" width="80" height="80" viewBox="0 0 80 80">
    <g fill="none" fill-rule="nonzero">
        <path fill="#C5C5C5" d="M31.76 36L39 63.328 36.367 66 20 49.272z"/>
        <path fill="#979797" d="M52.91 28H38.487c-.295 0-.578.117-.787.326L20.196 45.831a4.096 4.096 0 0 0 0 5.785l13.189 13.19A4.062 4.062 0 0 0 36.276 66a4.062 4.062 0 0 0 2.893-1.195L56.674 47.3c.208-.21.326-.492.326-.788V32.09A4.095 4.095 0 0 0 52.91 28zM55 46.039L37.59 63.45c-.355.355-.83.55-1.336.55-.508 0-.982-.195-1.336-.55L21.552 50.083a1.892 1.892 0 0 1 0-2.672L38.962 30H53.11c1.042 0 1.89.847 1.89 1.89v14.149z"/>
        <path fill="#00B8C9" d="M48.5 33c-.935 0-1.814.364-2.475 1.025A3.476 3.476 0 0 0 45 36.5c0 .935.364 1.814 1.025 2.475A3.477 3.477 0 0 0 48.5 40c.935 0 1.814-.364 2.475-1.025A3.477 3.477 0 0 0 52 36.5c0-.935-.364-1.814-1.025-2.475A3.478 3.478 0 0 0 48.5 33zm.9 4.4c-.24.24-.56.372-.9.372-.34 0-.66-.132-.9-.372s-.372-.56-.372-.9c0-.34.132-.66.373-.9.24-.24.56-.372.9-.372.339 0 .658.132.899.372.24.24.372.56.372.9 0 .34-.132.66-.372.9zM27.983 27.8a1.2 1.2 0 0 0-.984-.984A4.644 4.644 0 0 1 23.184 23a1.2 1.2 0 0 0-2.368 0 4.644 4.644 0 0 1-3.815 3.816 1.2 1.2 0 0 0 0 2.368A4.644 4.644 0 0 1 20.816 33a1.2 1.2 0 0 0 2.368 0 4.644 4.644 0 0 1 3.815-3.816 1.2 1.2 0 0 0 .984-1.384zM22 30a8.22 8.22 0 0 0-2-2 8.22 8.22 0 0 0 2-2 8.22 8.22 0 0 0 2 2 8.22 8.22 0 0 0-2 2zM45.983 10.8a1.2 1.2 0 0 0-.984-.984A4.644 4.644 0 0 1 41.184 6a1.2 1.2 0 0 0-2.368 0 4.644 4.644 0 0 1-3.815 3.816 1.2 1.2 0 0 0 0 2.368A4.644 4.644 0 0 1 38.816 16a1.2 1.2 0 0 0 2.368 0 4.644 4.644 0 0 1 3.815-3.816 1.2 1.2 0 0 0 .984-1.384zM40 13a8.22 8.22 0 0 0-2-2 8.22 8.22 0 0 0 2-2 8.22 8.22 0 0 0 2 2 8.22 8.22 0 0 0-2 2zM62.983 16.8a1.2 1.2 0 0 0-.984-.984A4.644 4.644 0 0 1 58.184 12a1.2 1.2 0 0 0-2.368 0 4.644 4.644 0 0 1-3.815 3.816 1.2 1.2 0 0 0 0 2.368A4.644 4.644 0 0 1 55.816 22a1.2 1.2 0 0 0 2.368 0 4.644 4.644 0 0 1 3.815-3.816 1.2 1.2 0 0 0 .984-1.384zM57 19a8.22 8.22 0 0 0-2-2 8.22 8.22 0 0 0 2-2 8.22 8.22 0 0 0 2 2 8.22 8.22 0 0 0-2 2z"/>
    </g>
</svg>
