<svg xmlns="http://www.w3.org/2000/svg" width="80" height="81" viewBox="0 0 80 81">
    <g fill="none" fill-rule="evenodd">
        <path fill="#979797" fill-rule="nonzero" d="M53.302 52.877c-.962-1.973-4.402-4.713-7.725-7.36-1.854-1.475-3.606-2.87-4.722-3.969a1.032 1.032 0 0 0-1.068-.235c-.688.245-1.113.434-1.447.58-.51.226-.682.302-1.37.37-.304.03-.578.191-.747.44-1.444 2.125-2.938 1.944-3.936 1.615-.319-.105-.376-.24-.407-.368-.214-.882.862-2.937 2.256-4.31 3.318-3.267 5.028-4.085 8.642-2.495 4.1 1.804 8.207 3.217 8.248 3.231a1.024 1.024 0 0 0 1.3-.619 1.003 1.003 0 0 0-.629-1.28c-.04-.014-4.067-1.399-8.084-3.17-4.681-2.06-7.25-.703-10.918 2.91-1.397 1.375-3.293 4.157-2.803 6.197.21.868.83 1.511 1.753 1.81 2.313.753 4.424.033 5.996-2.021.65-.098 1.003-.243 1.533-.478.192-.085.417-.183.715-.302 1.168 1.08 2.744 2.336 4.404 3.656 3 2.39 6.404 5.099 7.17 6.667.377.773-.03 1.278-.305 1.509-.404.342-.957.45-1.257.243a1.036 1.036 0 0 0-1.103-.036 1 1 0 0 0-.492.97c.07.64-.525 1.006-.782 1.132-.653.326-1.335.27-1.59.036a1.042 1.042 0 0 0-1.06-.205 1.007 1.007 0 0 0-.653.847c-.061.659-.557 1.292-1.204 1.54-.313.116-.766.186-1.172-.18a1.044 1.044 0 0 0-.933-.233c-.333.08-.6.318-.717.633-.039.1-.126.342-1.082.342-.68 0-1.903-.452-2.5-.842-.717-.465-5.21-3.765-9.091-6.964-.546-.453-1.489-1.421-2.322-2.278-.739-.76-1.414-1.449-1.762-1.738a1.027 1.027 0 0 0-1.439.119.995.995 0 0 0 .12 1.417c.317.263.93.9 1.605 1.593.91.937 1.852 1.906 2.485 2.428 3.801 3.134 8.37 6.516 9.28 7.105.752.486 2.37 1.17 3.624 1.17 1.007 0 1.78-.228 2.317-.672.719.276 1.536.278 2.322-.024a3.997 3.997 0 0 0 2.125-1.931c.804.169 1.725.05 2.562-.364.819-.406 1.41-1.027 1.704-1.753.813.043 1.65-.24 2.342-.826 1.172-.986 1.495-2.522.817-3.907z"/>
        <path fill="#979797" fill-rule="nonzero" d="M34.531 36.04h-9.168c-.562 0-1.019.38-1.019.848 0 .469.457.849 1.019.849h9.168c.563 0 1.02-.38 1.02-.849s-.457-.849-1.02-.849zM56.06 50.096a1.036 1.036 0 0 0-1.458-.291l-3.071 2.102c-.481.33-.61.995-.286 1.485.204.306.536.473.874.473.2 0 .403-.058.584-.182l3.071-2.102c.481-.33.61-.995.286-1.485zM49.794 55.366c-.771-.599-4.221-4.076-6.354-6.266a1.086 1.086 0 0 0-1.523-.032 1.049 1.049 0 0 0-.033 1.5c.554.569 5.438 5.583 6.574 6.465a1.095 1.095 0 0 0 1.515-.178 1.05 1.05 0 0 0-.18-1.49zM45.525 57.231c-1.18-.93-4.145-4.032-4.815-4.75a.998.998 0 0 0-1.393-.058.961.961 0 0 0-.06 1.372c.036.037 3.575 3.8 5.037 4.952a1 1 0 0 0 1.385-.152.962.962 0 0 0-.154-1.364zM41.234 58.943c-1.405-1.166-4.28-4.178-4.84-4.77A.996.996 0 0 0 35 54.127a.96.96 0 0 0-.047 1.371c.808.852 3.558 3.723 5.01 4.929a.992.992 0 0 0 1.39-.116.96.96 0 0 0-.119-1.368z"/>
        <path fill="#C5C5C5" d="M15.912 51.244l5.9-17.002c-2.334-2.631-4.22-3.447-5.657-2.447-1.437 1-1.518 7.482-.243 19.449zM62.024 53.141l-5.901-17.002c2.335-2.63 4.221-3.446 5.658-2.447 1.437 1 1.518 7.483.243 19.449z"/>
        <path fill="#979797" fill-rule="nonzero" d="M26.594 34.11c-1.847-1.654-9.232-2.19-11.452-2.314a1.107 1.107 0 0 0-.804.275.993.993 0 0 0-.338.742v18.336c0 .562.483 1.018 1.078 1.018h6.465c.465 0 .88-.283 1.023-.703.158-.456 3.871-11.23 4.36-16.526a.984.984 0 0 0-.332-.827zm-5.838 16.02h-4.601V33.905c3.463.259 7.2.82 8.558 1.444-.571 4.462-3.155 12.39-3.957 14.781zM62.947 33.493c-8.24 0-12.811 2.047-13.002 2.133a1.023 1.023 0 0 0-.56.633c-.084.28-.042.579.115.827 1.297 2.027 5.358 13.285 6.139 16.031.126.442.54.748 1.012.748h6.296c.58 0 1.05-.456 1.05-1.019V34.511c0-.564-.47-1.018-1.05-1.018zm-1.05 18.335h-4.461c-.995-3.146-3.934-11.348-5.573-14.738 1.602-.527 5.042-1.434 10.035-1.548v16.286z"/>
        <path stroke="#00B8C9" stroke-linecap="round" stroke-width="2.5" d="M39.385 27.615V17.462M44.46 29.737l2.846-7.129"/>
        <path stroke="#00B8C9" stroke-linecap="round" stroke-linejoin="round" stroke-width="2.5" d="M34.308 29.923l-2.77-7.385 2.77 7.385z"/>
    </g>
</svg>
