<svg xmlns="http://www.w3.org/2000/svg" width="295" height="181" viewBox="0 0 295 181">
    <g fill="none" fill-rule="evenodd">
        <g fill-rule="nonzero">
            <path fill="#CECECE" d="M96.22 89.025c16.102-34.751 33.915-43.514 52.999-25.716l-.549-.505 3.746-3.413 3.833 12.742-12.333-4.996 3.64-3.319c-17.91-16.149-34.426-7.72-49.974 25.837-18.16 39.194-43.977 41.043-76.733 5.602a.75.75 0 0 1 1.102-1.018c32.072 34.702 56.59 32.946 74.27-5.214zM59.26 5.29C69.195-2.575 79.61.808 88.74 16.846l4.559-2.18-.01 13.307-10.365-8.345 4.46-2.133C78.69 2.27 69.308-.751 60.19 6.466c-8.08 6.397-15.304 20.64-18.854 36.238C36.45 64.179 27.67 78.463 14.963 85.499a.75.75 0 1 1-.726-1.313c12.28-6.8 20.837-20.72 25.638-41.815 3.618-15.9 10.99-30.435 19.385-37.081z"/>
            <path fill="#CECECE" d="M12.942 95.669a.75.75 0 0 1 .806.69c4.721 61.244 27.116 75.822 67.874 44.43l-.683.52-3.15-3.844 12.927-3.157-5.638 12.053-3.189-3.887c-41.419 31.555-64.857 15.993-69.637-46a.75.75 0 0 1 .69-.805zM107.988 128.282c13.268-3.918 24.327-1.58 33.063 7.015l4.064-3.09 2.689 13.032-11.842-6.07 3.883-2.953c-8.308-8.076-18.749-10.241-31.433-6.496a.75.75 0 0 1-.424-1.438zM207.87 133.735l10.506 8.165-4.514 2.257c5.824 13.789 5.81 24.412-.148 31.79-7.472 9.253-25.278 4.5-53.467-13.848a.75.75 0 1 1 .818-1.257c27.556 17.936 44.733 22.52 51.482 14.163 5.538-6.859 5.563-16.892-.03-30.177l-4.429 2.212-.219-13.305zM173.37 4.437l6.991 11.322-13.204-1.645 2.632-4.1c-8.905-3.796-16.684.044-28.189 15.412-11.693 15.62-24.009 18.935-36.641 9.736a.75.75 0 1 1 .882-1.213c11.901 8.666 23.318 5.594 34.559-9.421 11.973-15.996 20.459-20.082 30.21-15.794l2.76-4.297z"/>
            <path fill="#E1E1E1" d="M147.377 73.196a.75.75 0 0 1 .699.797l-.655 9.979a.75.75 0 1 1-1.497-.099l.278-4.237c-27.394-1.545-41.456 11.752-42.452 40.156a.75.75 0 0 1-1.5-.053c1.035-29.499 16.06-43.441 44.8-41.554l-.75-.046.28-4.244a.75.75 0 0 1 .695-.7zM173.076 19.039a.75.75 0 0 1 .886 1.21c-6.205 4.537-7.473 11.004-3.781 19.632 3.742 8.744 5.125 16.614 4.132 23.607l4.2.704a.75.75 0 1 1-.247 1.48l-9.863-1.654a.75.75 0 1 1 .248-1.48l4.182.702c.94-6.688-.397-14.276-4.031-22.769-3.95-9.232-2.534-16.454 4.274-21.432zM207.853 66.677a.75.75 0 0 1 1.039-.214l4.172 2.747a.076.076 0 0 1 .007.004l4.174 2.747a.75.75 0 1 1-.825 1.253l-3.553-2.339c-11.869 17.623-25.539 20.532-40.622 8.569a.75.75 0 0 1 .932-1.176c14.358 11.389 27.041 8.702 38.436-8.217l-3.546-2.335a.75.75 0 0 1-.214-1.039z"/>
            <path fill="#CECECE" d="M230.88 57.548c12.537-2.02 24.061 1.232 34.521 9.732l3.553-3.61 4.521 12.515-12.587-4.317 3.456-3.514c-10.104-8.168-21.163-11.268-33.225-9.325a.75.75 0 0 1-.238-1.481zM165.266 79.996a.75.75 0 1 1 1.292.762c-9.114 15.44-7.852 27.287 3.723 35.84 5.624 4.154 10.508 7.223 14.648 9.205l1.022-4.691 10.5 8.173-12.949 3.063 1.1-5.04c-4.306-2.024-9.375-5.191-15.212-9.504-12.248-9.05-13.602-21.752-4.124-37.808z"/>
            <path fill="#E1E1E1" d="M267.445 109.986a.75.75 0 0 1 .918-.531l9.661 2.58a.75.75 0 0 1-.387 1.45l-4.11-1.098c-5.208 18.827-13.83 23.97-25.393 14.807-10.945-8.673-25.308-8.673-43.204.086a.75.75 0 0 1-.66-1.347c18.37-8.991 33.341-8.991 44.796.086 10.549 8.359 18.063 3.893 23.013-14.019l-4.103-1.096a.75.75 0 0 1-.531-.918z"/>
            <path fill="#CECECE" d="M206.505 10.738l1.046 4.962c21.88-2.381 28.41 11.956 19.559 42.214a.75.75 0 1 1-1.44-.421c8.571-29.3 2.645-42.475-17.808-40.318l1.013 4.816-12.927-3.153 10.557-8.1z"/>
        </g>
        <g fill="#8892AA" transform="translate(0 11)">
            <ellipse cx="279.81" cy="79.098" rx="15.19" ry="15.18"/>
            <ellipse cx="150.698" cy="144.214" rx="10.793" ry="10.786"/>
            <ellipse cx="203.862" cy="116.649" rx="8.794" ry="8.789"/>
            <ellipse cx="221.45" cy="47.938" rx="8.794" ry="8.789"/>
            <ellipse cx="187.873" cy="8.789" rx="8.794" ry="8.789"/>
            <ellipse cx="95.935" cy="23.969" rx="8.794" ry="8.789"/>
            <ellipse cx="10.793" cy="82.693" rx="10.793" ry="10.786"/>
            <ellipse cx="97.934" cy="118.647" rx="10.793" ry="10.786"/>
            <ellipse cx="163.489" cy="67.513" rx="10.793" ry="10.786"/>
        </g>
        <g fill="#A5A5A5" transform="translate(6)">
            <ellipse cx="233.271" cy="155.418" rx="7.576" ry="7.591"/>
            <ellipse cx="103.277" cy="163.409" rx="7.576" ry="7.591"/>
            <ellipse cx="215.726" cy="96.287" rx="7.576" ry="7.591"/>
            <ellipse cx="7.576" cy="32.362" rx="7.576" ry="7.591"/>
            <ellipse cx="133.583" cy="111.47" rx="7.576" ry="7.591"/>
            <ellipse cx="57.022" cy="49.143" rx="7.576" ry="7.591"/>
            <ellipse cx="55.028" cy="86.299" rx="5.583" ry="5.593"/>
            <ellipse cx="185.819" cy="157.416" rx="5.583" ry="5.593"/>
            <ellipse cx="180.237" cy="103.879" rx="5.583" ry="5.593"/>
            <ellipse cx="180.237" cy="50.341" rx="5.583" ry="5.593"/>
            <ellipse cx="34.692" cy="134.643" rx="7.576" ry="7.591"/>
            <ellipse cx="118.43" cy="7.591" rx="7.576" ry="7.591"/>
            <ellipse cx="248.424" cy="33.96" rx="7.576" ry="7.591"/>
        </g>
    </g>
</svg>
