<svg xmlns="http://www.w3.org/2000/svg" width="342" height="102" viewBox="0 0 342 102">
    <g fill="none" fill-rule="evenodd">
        <g fill="#8EF5FF" opacity=".2">
            <path d="M197.47 56.543l-34.361 28.368c-3.374 2.785-8.844 2.785-12.218 0l-34.36-28.368c-3.374-2.785-3.374-7.3 0-10.086l34.36-28.368c3.374-2.785 8.844-2.785 12.218 0l34.36 28.368c3.374 2.785 3.374 7.3 0 10.086z"/>
            <path d="M179.764 55.975l-30.366 25.171c-2.981 2.472-7.815 2.472-10.796 0l-30.366-25.171c-2.981-2.472-2.981-6.478 0-8.95l30.366-25.171c2.981-2.472 7.815-2.472 10.796 0l30.366 25.171c2.981 2.472 2.981 6.478 0 8.95z"/>
            <path d="M231.47 56.543l-34.361 28.368c-3.374 2.785-8.844 2.785-12.218 0l-34.36-28.368c-3.374-2.785-3.374-7.3 0-10.086l34.36-28.368c3.374-2.785 8.844-2.785 12.218 0l34.36 28.368c3.374 2.785 3.374 7.3 0 10.086z"/>
            <path d="M239.764 55.975l-30.366 25.171c-2.981 2.472-7.815 2.472-10.796 0l-30.366-25.171c-2.981-2.472-2.981-6.478 0-8.95l30.366-25.171c2.981-2.472 7.815-2.472 10.796 0l30.366 25.171c2.981 2.472 2.981 6.478 0 8.95z"/>
        </g>
        <g fill="#8EF5FF" fill-rule="nonzero">
            <path d="M308.167 45.75l12 5.75-12 5.75-.001-5H52.833v5l-12-5.75 12-5.75v5h255.333v-5z"/>
            <path d="M312.979 20.036l-4.621 12.479-3.479-3.593-23.357 22.617a.75.75 0 0 1-.978.057l-.083-.074a.75.75 0 0 1 .017-1.06l23.358-22.618-3.478-3.591 12.62-4.217z"/>
            <path d="M280.488 51.327a.75.75 0 0 1 1.06.036l21.769 23.338 3.657-3.41 3.98 12.696-12.39-4.852 3.657-3.411-21.77-23.337a.75.75 0 0 1-.038-.979z"/>
        </g>
        <circle cx="21" cy="21" r="21" fill="#00B8C9" transform="translate(0 30)"/>
        <path fill="#00B8C9" d="M221.058 57.396l-39.955 33.162c-3.923 3.256-10.283 3.256-14.206 0l-39.955-33.162c-3.923-3.256-3.923-8.536 0-11.792l39.955-33.162c3.923-3.256 10.283-3.256 14.206 0l39.955 33.162c3.923 3.256 3.923 8.536 0 11.792z"/>
        <path fill="#8EF5FF" fill-rule="nonzero" d="M188.045 70.445h-.057c-14.333 0-25.951-8.27-25.951-18.44 0-10.17 11.618-18.44 25.95-18.44h.058c1.081 0 1.313-1.274.289-1.555a28.986 28.986 0 0 0-9.338-.957c-12.205.71-22.09 9.097-22.935 19.454C155.06 62.786 166.506 73 180.747 73a28.797 28.797 0 0 0 7.617-1.013c1.016-.286.745-1.546-.32-1.542z"/>
        <path fill="#FFF" d="M157.244 38.21c4.285.348 11.067 4.066 17.1 9.926a48.824 48.824 0 0 1 4.255 4.709.959.959 0 0 1 0 1.194 48.824 48.824 0 0 1-4.254 4.709c-5.051 4.908-10.762 8.131-15.118 9.582 0 0-2.753.73-2.975 1.76-.221 1.03.956 1.516 1.297 1.637 4.777 1.377 13.414-2.54 20.97-9.895a49.615 49.615 0 0 0 2.838-2.993.76.76 0 0 1 1.253.152c1.456 2.845 2.249 5.447 2.213 7.61 0 1.165.589 1.599 1.439 1.52.562-.047 1.284-.525 1.917-1.52 1.726-2.723.65-7.45-2.475-12.644a1 1 0 0 1 0-1.03c3.466-5.764 4.365-11.016 1.77-13.522a4.425 4.425 0 0 0-1.004-.713c-.996-.39-1.687.287-1.696 1.616 0 2.15-.743 4.778-2.182 7.585a.76.76 0 0 1-1.253.152 51.049 51.049 0 0 0-2.837-2.993c-7.955-7.758-16.853-11.568-21.426-9.492-1.665.93-1.231 2.607.168 2.65"/>
        <g transform="translate(309)">
            <circle cx="21.5" cy="51.5" r="11.5" fill="#00B8C9"/>
            <circle cx="11.5" cy="90.5" r="11.5" fill="#36D5E4"/>
            <circle cx="11.5" cy="11.5" r="11.5" fill="#36D5E4"/>
        </g>
    </g>
</svg>
