<svg xmlns="http://www.w3.org/2000/svg" width="40" height="40" viewBox="0 0 40 40">
    <g fill="#2DC3C0" fill-rule="nonzero">
        <path d="M34.142 5.858A19.87 19.87 0 0 0 20 0 19.87 19.87 0 0 0 5.858 5.858 19.87 19.87 0 0 0 0 20a19.87 19.87 0 0 0 5.858 14.142A19.87 19.87 0 0 0 20 40a19.87 19.87 0 0 0 14.142-5.858A19.87 19.87 0 0 0 40 20a19.87 19.87 0 0 0-5.858-14.142zM20 37.656c-9.736 0-17.656-7.92-17.656-17.656 0-9.736 7.92-17.656 17.656-17.656 9.736 0 17.656 7.92 17.656 17.656 0 9.736-7.92 17.656-17.656 17.656z"/>
        <path d="M30.52 11.8a1.224 1.224 0 0 1 .55.133 1.23 1.23 0 0 1 .452.407 1.086 1.086 0 0 1 .13.262 1.157 1.157 0 0 1 .068.398l-.003-.092.002.057.001.035v8a1.2 1.2 0 1 1-2.4 0v-5.104l-8.971 8.973a1.2 1.2 0 0 1-1.6.087l-.098-.087-3.769-3.77-6.033 6.034a1.2 1.2 0 1 1-1.698-1.697l6.883-6.882a1.2 1.2 0 0 1 1.697 0l3.769 3.769 8.123-8.124-5.123.001a1.2 1.2 0 0 1-1.194-1.077L21.3 13a1.2 1.2 0 0 1 1.2-1.2z"/>
    </g>
</svg>
