<svg xmlns="http://www.w3.org/2000/svg" width="40" height="40" viewBox="0 0 40 40">
    <g fill="#2DC3C0" fill-rule="nonzero">
        <path d="M34.142 5.858A19.87 19.87 0 0 0 20 0 19.87 19.87 0 0 0 5.858 5.858 19.87 19.87 0 0 0 0 20a19.87 19.87 0 0 0 5.858 14.142A19.87 19.87 0 0 0 20 40a19.87 19.87 0 0 0 14.142-5.858A19.87 19.87 0 0 0 40 20a19.87 19.87 0 0 0-5.858-14.142zM20 37.656c-9.736 0-17.656-7.92-17.656-17.656 0-9.736 7.92-17.656 17.656-17.656 9.736 0 17.656 7.92 17.656 17.656 0 9.736-7.92 17.656-17.656 17.656z"/>
        <path d="M16.8 22.773a8.705 8.705 0 0 1-6-8.273V12a1.2 1.2 0 0 1 1.2-1.2h16a1.2 1.2 0 0 1 1.2 1.2v2.5a8.705 8.705 0 0 1-6 8.273v3.515a5.221 5.221 0 0 1 2.995 4.483l.005.2A1.2 1.2 0 0 1 25 32.2H15a1.2 1.2 0 0 1-1.2-1.2 5.194 5.194 0 0 1 3-4.708v-3.519zm3.2 3.534c.164-.253.431-.443.8-.494V21.85a1.2 1.2 0 0 1 .962-1.176A6.302 6.302 0 0 0 26.8 14.5v-1.3H13.2v1.3a6.302 6.302 0 0 0 5.04 6.174 1.2 1.2 0 0 1 .96 1.176v3.963c.368.051.634.241.8.494zm0 1.387a1.304 1.304 0 0 1 0-1.387 1.3 1.3 0 0 1 0 1.387zm-.97.506l-.17.003a2.799 2.799 0 0 0-2.39 1.597h7.06A2.802 2.802 0 0 0 21 28.2c-.474 0-.807-.21-1-.506-.19.288-.512.494-.97.506z"/>
    </g>
</svg>
