<svg xmlns="http://www.w3.org/2000/svg" xmlns:xlink="http://www.w3.org/1999/xlink" width="70" height="17" viewBox="0 0 70 17">
    <defs>
        <path id="a" d="M.143.002h12.73v16.972H.143z"/>
    </defs>
    <g fill="none" fill-rule="evenodd">
        <path fill="#009BD2" d="M5.426 14.386c.513 0 .964-.065 1.35-.196.387-.129.711-.31.972-.538.26-.23.458-.503.593-.814.135-.313.203-.645.203-1 0-.74-.276-1.316-.83-1.732-.55-.415-1.396-.625-2.535-.625H3.73a.546.546 0 0 0-.546.545v3.814c0 .302.244.546.546.546h1.696zm2.557-9.742c0-.321-.053-.613-.157-.873a1.57 1.57 0 0 0-.502-.662c-.23-.182-.527-.323-.886-.423-.362-.099-.8-.15-1.312-.15H3.73a.546.546 0 0 0-.546.546V6.49c0 .3.244.545.546.545h1.396c.522 0 .964-.063 1.324-.188a2.4 2.4 0 0 0 .887-.52c.23-.222.396-.475.496-.76.099-.287.15-.595.15-.924zM0 16.454V.546C0 .245.245 0 .547 0h4.957c1.94 0 3.393.34 4.363 1.015.97.676 1.454 1.7 1.454 3.07 0 .425-.05.837-.15 1.24a3.815 3.815 0 0 1-.463 1.113 3.526 3.526 0 0 1-1.89 1.51c.426.068.832.206 1.218.41.387.203.727.467 1.018.792.291.325.522.71.691 1.152.17.44.255.937.255 1.481 0 1.736-.583 3.038-1.748 3.91C9.086 16.564 7.404 17 5.204 17H.547A.546.546 0 0 1 0 16.455zM15 16.455V.545c0-.3.234-.545.523-.545h2.072c.289 0 .523.244.523.545V13.71c0 .301.234.546.522.546h5.837c.289 0 .523.244.523.545v1.654a.534.534 0 0 1-.523.545h-8.954a.534.534 0 0 1-.523-.545M40 10.557c0 1.067-.14 2-.423 2.806-.281.806-.685 1.478-1.21 2.014a5.054 5.054 0 0 1-1.922 1.215c-.756.273-1.605.408-2.546.408-1.06 0-1.966-.135-2.722-.408-.756-.274-1.37-.666-1.841-1.177-.471-.511-.812-1.133-1.02-1.867-.212-.732-.316-1.554-.316-2.465V.536c0-.296.237-.536.528-.536h2.045c.292 0 .528.24.528.536V10.89c0 .562.048 1.06.145 1.495.096.435.264.804.504 1.106.24.303.54.529.901.683.361.154.814.23 1.362.23.511 0 .945-.065 1.298-.198.353-.132.646-.345.882-.638.235-.294.412-.672.529-1.132.119-.46.176-1.019.176-1.674V.536c0-.296.237-.536.529-.536h2.045c.291 0 .528.24.528.536v10.021zM44 16.346l.177-15.81c.004-.3.24-.54.53-.536l8.776.106c.289.003.52.248.517.548l-.018 1.605a.532.532 0 0 1-.53.535l-5.656-.068a.532.532 0 0 0-.529.536l-.035 3.117c-.003.3.228.545.517.548l5.345.065c.29.003.52.248.517.548l-.017 1.54c-.003.3-.24.54-.53.536l-5.344-.064a.532.532 0 0 0-.53.535l-.04 3.608c-.004.3.228.545.517.548l5.656.068c.29.004.52.25.518.548l-.018 1.606a.532.532 0 0 1-.53.535l-8.776-.106a.533.533 0 0 1-.517-.548"/>
        <g transform="translate(57)">
            <mask id="b" fill="#fff">
                <use xlink:href="#a"/>
            </mask>
            <path fill="#97E4FF" d="M10.252 16.974h2.078c.422 0 .682-.46.465-.823L3.258.265a.542.542 0 0 0-.464-.263H.686a.543.543 0 0 0-.464.824L9.788 16.71a.542.542 0 0 0 .464.263" mask="url(#b)"/>
        </g>
        <path fill="#97E4FF" d="M60.47 17h-1.958c-.398 0-.643-.461-.438-.824L67.064.264A.506.506 0 0 1 67.5 0h1.987c.398 0 .643.462.438.825l-9.018 15.912a.505.505 0 0 1-.438.263"/>
    </g>
</svg>
