<svg xmlns="http://www.w3.org/2000/svg" width="320" height="56" viewBox="0 0 320 56">
    <g fill="none" fill-rule="evenodd">
        <path fill="#068C85" fill-rule="nonzero" d="M52.587 27.994c0-13.856 6.68-22.394 17.532-22.394 8.263 0 14.727 5.838 16.013 14.153.077.455-.054.92-.357 1.271-.304.352-.75.555-1.22.556h-4.561a1.57 1.57 0 0 1-1.52-1.187c-1.081-4.23-4.27-6.934-8.355-6.934-5.877 0-9.53 5.552-9.53 14.535s3.653 14.559 9.553 14.559c4.108 0 7.28-2.528 8.362-6.569.19-.68.823-1.148 1.542-1.141h4.521c.465.009.903.215 1.201.565.298.35.427.81.353 1.26C84.782 44.882 78.498 50.4 70.096 50.4c-10.805 0-17.509-8.538-17.509-22.406zM114.624 40.147a1.837 1.837 0 0 0-1.673-1.281H102.42a1.849 1.849 0 0 0-1.68 1.275l-2.182 7.86a1.843 1.843 0 0 1-1.679 1.275h-5.236a.93.93 0 0 1-.948-1.269L102.98 6.87a1.901 1.901 0 0 1 1.662-1.269h6.611a1.901 1.901 0 0 1 1.709 1.27l12.286 41.137a.93.93 0 0 1-.948 1.27h-5.85A1.837 1.837 0 0 1 116.777 48l-2.153-7.854zm-11.508-9.615a.959.959 0 0 0 .977 1.28h7.19a.966.966 0 0 0 .966-1.28l-3.967-14.574c-.187-.702-.45-1.275-.585-1.275-.135 0-.392.584-.585 1.275l-3.996 14.574zM135.606 49.28h-4.107a1.645 1.645 0 0 1-1.207-.504 1.794 1.794 0 0 1-.502-1.251V7.39c-.001-.474.178-.93.499-1.265.32-.336.756-.525 1.21-.525h13.402c7.905 0 12.768 5.328 12.768 14.037 0 4.972-1.905 9.359-5.255 11.698-.71.484-.973 1.436-.622 2.24l5.81 13.166c.246.55.207 1.194-.104 1.707-.31.513-.85.827-1.431.832h-4.763c-.68.01-1.3-.411-1.568-1.065l-5.805-13.698a1.713 1.713 0 0 0-1.568-1.065h-3.328c-.935-.003-1.7.779-1.715 1.755V47.49c.002.475-.178.931-.5 1.267a1.674 1.674 0 0 1-1.214.523zm1.714-24.642c0 .989.768 1.79 1.715 1.79h4.89c3.794 0 6.012-2.486 6.012-6.691 0-4.206-2.342-6.75-6.084-6.75h-4.818c-.945 0-1.712.798-1.715 1.784v9.867zM173.626 49.28h-4.111c-.93 0-1.683-.786-1.683-1.755V7.39c-.003-.976.747-1.774 1.683-1.79h13.415c7.913 0 12.78 5.328 12.78 14.037 0 4.972-1.906 9.359-5.26 11.698-.71.484-.974 1.436-.622 2.24l5.816 13.166a1.85 1.85 0 0 1-.104 1.707c-.31.514-.85.827-1.433.832h-4.767c-.682.01-1.302-.41-1.57-1.065l-5.81-13.698a1.715 1.715 0 0 0-1.57-1.064h-3.332c-.936-.004-1.701.778-1.716 1.754V47.49c.001.475-.18.931-.501 1.267-.322.336-.76.524-1.215.523zm1.716-24.642c0 .989.768 1.79 1.716 1.79h4.896c3.797 0 6.018-2.486 6.018-6.691 0-4.206-2.345-6.75-6.091-6.75h-4.823c-.946 0-1.713.798-1.716 1.784v9.867zM258.66 49.28h-4.11c-.93 0-1.683-.786-1.683-1.755V7.39c-.003-.976.747-1.774 1.683-1.79h13.415c7.913 0 12.78 5.328 12.78 14.037 0 4.972-1.906 9.359-5.26 11.698-.71.484-.974 1.436-.622 2.24l5.816 13.166a1.85 1.85 0 0 1-.104 1.707c-.31.514-.85.827-1.433.832h-4.767c-.682.01-1.302-.41-1.57-1.065l-5.81-13.698a1.715 1.715 0 0 0-1.57-1.064h-3.332c-.936-.004-1.701.778-1.716 1.754V47.49c.001.475-.18.931-.501 1.267-.323.336-.76.524-1.215.523zm1.717-24.642c0 .989.768 1.79 1.716 1.79h4.896c3.797 0 6.017-2.486 6.017-6.691 0-4.206-2.344-6.75-6.09-6.75h-4.823c-.946 0-1.713.798-1.716 1.784v9.867zM204.77 49.28c-.624 0-1.13-.59-1.134-1.322V6.928c0-.734.508-1.328 1.133-1.328h4.448c.625 0 1.133.594 1.133 1.328v41.03c-.003.731-.51 1.322-1.133 1.322h-4.448zM246.154 47.958a1.32 1.32 0 0 1-1.314 1.322h-21.988a1.32 1.32 0 0 1-1.314-1.322V6.928a1.32 1.32 0 0 1 1.314-1.328h21.988a1.32 1.32 0 0 1 1.314 1.328v5.153a1.32 1.32 0 0 1-1.314 1.322h-14.217c-.72.01-1.3.604-1.296 1.333v7.551a1.32 1.32 0 0 0 1.313 1.322h13.269a1.32 1.32 0 0 1 1.307 1.328v4.585a1.32 1.32 0 0 1-1.307 1.322h-13.286a1.32 1.32 0 0 0-1.296 1.328v7.972a1.321 1.321 0 0 0 1.296 1.333h14.217a1.32 1.32 0 0 1 1.314 1.328v5.153z"/>
        <path fill="#09C7CC" fill-rule="nonzero" d="M298.14 28.428a2.767 2.767 0 0 0 0-2.335l-10.354-19.32c-.341-.636-.04-1.167.672-1.167h6.405c.779.04 1.486.48 1.883 1.168l6.44 12.902c.324.649.694 1.168.82 1.168.125 0 .494-.531.819-1.168l6.513-12.908a2.313 2.313 0 0 1 1.883-1.168h5.98c.705 0 1 .52.654 1.168L309.09 26.262a2.695 2.695 0 0 0 0 2.336l10.593 19.5c.196.23.228.563.078.827a.688.688 0 0 1-.738.34h-6.138a2.375 2.375 0 0 1-1.906-1.167l-6.616-12.494c-.342-.642-.723-1.168-.848-1.168s-.506.526-.848 1.168l-6.707 12.47a2.397 2.397 0 0 1-1.911 1.168h-5.69c-.704 0-1.006-.52-.67-1.167l10.45-19.647z"/>
        <path fill="#068C85" fill-rule="nonzero" d="M42.373 52.594h-.075c-18.952 0-34.315-11.027-34.315-24.588 0-13.56 15.363-24.587 34.315-24.587h.075c1.43 0 1.737-1.697.382-2.072A38.026 38.026 0 0 0 30.408.07C14.27 1.017 1.198 12.2.081 26.009-1.245 42.381 13.893 56 32.724 56c3.403.005 6.791-.45 10.072-1.35 1.343-.382.984-2.062-.423-2.056z"/>
        <path fill="#09C7CC" d="M1.645 8.756c5.666.462 14.634 5.415 22.613 13.22a64.868 64.868 0 0 1 5.625 6.271 1.284 1.284 0 0 1 0 1.591 64.868 64.868 0 0 1-5.625 6.272c-6.68 6.537-14.23 10.83-19.99 12.762 0 0-3.642.972-3.934 2.344-.293 1.37 1.264 2.019 1.715 2.18 6.316 1.835 17.736-3.384 27.729-13.179a65.884 65.884 0 0 0 3.752-3.986 1.001 1.001 0 0 1 1.656.203c1.926 3.79 2.974 7.255 2.927 10.136 0 1.55.779 2.129 1.903 2.025.743-.064 1.697-.7 2.534-2.025 2.283-3.628.86-9.922-3.272-16.842a1.34 1.34 0 0 1 0-1.371c4.584-7.677 5.772-14.672 2.342-18.01a5.852 5.852 0 0 0-1.33-.95c-1.316-.52-2.23.383-2.241 2.153 0 2.864-.984 6.364-2.886 10.102a1.001 1.001 0 0 1-1.657.202 67.789 67.789 0 0 0-3.752-3.986C19.235 7.535 7.47 2.46 1.422 5.226c-2.2 1.239-1.627 3.472.223 3.53"/>
    </g>
</svg>
