<svg xmlns="http://www.w3.org/2000/svg" xmlns:xlink="http://www.w3.org/1999/xlink" width="163" height="27" viewBox="0 0 163 27">
    <defs>
        <path id="a" d="M0 .086h20.913V27H0z"/>
        <path id="c" d="M.14.124h14.617v19.842H.14z"/>
    </defs>
    <g fill="none" fill-rule="evenodd">
        <mask id="b" fill="#fff">
            <use xlink:href="#a"/>
        </mask>
        <path fill="#2DC3C0" d="M20.271 25.359c-9.083 0-16.446-5.29-16.446-11.816 0-6.525 7.363-11.815 16.446-11.815h.036c.687 0 .838-.815.184-.996A18.176 18.176 0 0 0 14.575.12C6.838.576.574 5.947.039 12.586-.595 20.45 6.652 27 15.682 27c1.685 0 3.308-.229 4.829-.651.642-.179.472-.991-.204-.99h-.036z" mask="url(#b)"/>
        <path fill="#2DC3C0" d="M114 23.23l.213-18.6a.632.632 0 0 1 .635-.63l10.531.124a.634.634 0 0 1 .621.645l-.022 1.889a.632.632 0 0 1-.635.63l-6.787-.08a.633.633 0 0 0-.636.63l-.042 3.667a.633.633 0 0 0 .621.645l6.414.075a.633.633 0 0 1 .62.645l-.02 1.813a.632.632 0 0 1-.635.63l-6.414-.075a.632.632 0 0 0-.635.63l-.049 4.244a.632.632 0 0 0 .62.644l6.788.08a.633.633 0 0 1 .62.645l-.021 1.889a.633.633 0 0 1-.635.63l-10.532-.124a.633.633 0 0 1-.62-.645"/>
        <g transform="translate(148 4)">
            <mask id="d" fill="#fff">
                <use xlink:href="#c"/>
            </mask>
            <path fill="#FFF" d="M14.392 0c.473 0 .764.544.52.97l-5.357 9.364 5.112 8.67a.637.637 0 0 1-.439.955l-.094.007h-2.386a.62.62 0 0 1-.533-.307L7.66 13.648l-3.457 6.043a.601.601 0 0 1-.52.309H1.358c-.472 0-.764-.543-.52-.97l4.91-8.613L.23 1.087A.637.637 0 0 1 .67.13L.763.124h2.42a.62.62 0 0 1 .534.308l3.927 6.66L11.513.31a.602.602 0 0 1 .52-.31h2.36z" mask="url(#d)"/>
        </g>
        <path fill="#FFF" d="M2.793 4.084c2.727.223 7.049 2.636 10.882 6.437a31.584 31.584 0 0 1 2.71 3.053.633.633 0 0 1 0 .776 31.618 31.618 0 0 1-2.71 3.053c-3.213 3.186-6.848 5.275-9.619 6.215 0 0-1.753.476-1.895 1.142-.141.667.608.984.826 1.063 3.04.894 8.536-1.648 13.348-6.419a32.232 32.232 0 0 0 1.803-1.941.482.482 0 0 1 .8.098c.925 1.847 1.43 3.533 1.407 4.936-.012.755.374 1.037.915.988.36-.033.818-.34 1.221-.986 1.09-1.769.415-4.834-1.575-8.203a.657.657 0 0 1 0-.668c2.208-3.737 2.778-7.144 1.14-8.77a2.86 2.86 0 0 0-.64-.463c-.634-.254-1.076.188-1.08 1.048.011 1.394-.473 3.094-1.389 4.92a.482.482 0 0 1-.799.098 32.144 32.144 0 0 0-1.804-1.941C11.26 3.487 5.597 1.017 2.684 2.363c-1.059.604-.783 1.685.109 1.72"/>
        <path fill="#2DC3C0" d="M28 14.493C28 8.001 31.216 4 36.44 4c3.654 0 6.575 2.309 7.508 5.706.245.893-.405 1.783-1.296 1.783h-1.038a1.343 1.343 0 0 1-1.263-.924c-.606-1.77-2.07-2.883-3.912-2.883-2.83 0-4.587 2.603-4.587 6.811s1.758 6.825 4.6 6.825c1.844 0 3.296-1.033 3.904-2.708a1.346 1.346 0 0 1 1.256-.905h1.038c.895 0 1.548.896 1.294 1.79C43 22.825 40.148 25 36.44 25 31.23 25 28 21 28 14.493M52.577 16.003h3.574c.337 0 .579-.324.483-.646l-2.14-7.199h-.235l-2.164 7.198a.503.503 0 0 0 .482.647m4.405 3.23h-5.254c-.401 0-.755.26-.87.643l-1.056 3.48a.91.91 0 0 1-.87.644H46.91a.908.908 0 0 1-.865-1.188l5.937-18.186A.909.909 0 0 1 52.847 4h3.306a.91.91 0 0 1 .865.626l5.937 18.186A.907.907 0 0 1 62.09 24H59.76a.909.909 0 0 1-.871-.648l-1.035-3.471a.908.908 0 0 0-.87-.649M70.782 12.341c0 .66.515 1.195 1.15 1.195H74.1c1.904 0 3.018-1.137 3.018-3.063 0-1.9-1.177-3.091-3.055-3.091h-2.13c-.636 0-1.151.535-1.151 1.195v3.764zM69.632 24H68.15c-.635 0-1.15-.535-1.15-1.195V5.195C67 4.535 67.515 4 68.15 4h6.438C78.558 4 81 6.44 81 10.417c0 2.166-.867 4.092-2.402 5.183-.476.34-.644.987-.385 1.523l2.48 5.148c.382.794-.174 1.729-1.03 1.729h-1.697c-.442 0-.845-.263-1.037-.676l-2.74-5.898a1.147 1.147 0 0 0-1.036-.675h-1.22c-.636 0-1.151.535-1.151 1.195v4.86c0 .66-.515 1.194-1.15 1.194zM89.782 12.341c0 .66.515 1.195 1.15 1.195H93.1c1.904 0 3.018-1.137 3.018-3.063 0-1.9-1.177-3.091-3.056-3.091h-2.13c-.635 0-1.15.535-1.15 1.195v3.764zM88.632 24H87.15c-.635 0-1.15-.535-1.15-1.195V5.195C86 4.535 86.515 4 87.15 4h6.438C97.558 4 100 6.44 100 10.417c0 2.166-.867 4.092-2.402 5.183-.476.34-.644.987-.386 1.523l2.481 5.148c.382.794-.174 1.729-1.03 1.729h-1.697c-.442 0-.845-.263-1.037-.676l-2.74-5.898a1.148 1.148 0 0 0-1.036-.675h-1.22c-.636 0-1.151.535-1.151 1.195v4.86c0 .66-.516 1.194-1.15 1.194zM133.782 12.341c0 .66.515 1.195 1.15 1.195h2.168c1.904 0 3.018-1.137 3.018-3.063 0-1.9-1.177-3.091-3.056-3.091h-2.13c-.635 0-1.15.535-1.15 1.195v3.764zM132.632 24h-1.482c-.635 0-1.15-.535-1.15-1.195V5.195c0-.66.515-1.195 1.15-1.195h6.438c3.97 0 6.412 2.44 6.412 6.417 0 2.166-.867 4.092-2.402 5.183-.476.34-.644.987-.386 1.523l2.481 5.148c.382.794-.174 1.729-1.03 1.729h-1.697c-.442 0-.845-.263-1.037-.676l-2.74-5.898a1.148 1.148 0 0 0-1.036-.675h-1.22c-.636 0-1.151.535-1.151 1.195v4.86c0 .66-.516 1.194-1.15 1.194zM104 23.183V4.817a.82.82 0 0 1 .823-.817h2.354a.82.82 0 0 1 .823.817v18.366a.82.82 0 0 1-.823.817h-2.354a.82.82 0 0 1-.823-.817"/>
    </g>
</svg>
