<svg xmlns="http://www.w3.org/2000/svg" width="23" height="21" viewBox="0 0 23 21">
    <path fill="#2DC3C0" fill-rule="nonzero" d="M4.507.165c2.304 0 4.752 1.296 4.752 6.48 0 5.976-3.744 11.16-6.048 13.32-.72.648-1.296.576-1.728.144L.475 19.101c-.36-.36-.288-1.08.432-1.728.72-.648 4.464-3.816 4.464-9.072-.288.072-.576.072-.864.072C2.275 8.373.403 6.501.403 4.27A4.102 4.102 0 0 1 4.507.165zm12.96 0c2.304 0 4.752 1.296 4.752 6.48 0 5.976-3.744 11.16-6.048 13.32-.72.648-1.296.576-1.728.144l-1.008-1.008c-.36-.36-.288-1.08.432-1.728.72-.648 4.464-3.816 4.464-9.072-.288.072-.576.072-.864.072-2.232 0-4.104-1.872-4.104-4.104A4.102 4.102 0 0 1 17.467.165z"/>
</svg>
