<svg xmlns="http://www.w3.org/2000/svg" width="22" height="21" viewBox="0 0 22 21">
    <path fill="#2DC3C0" fill-rule="nonzero" d="M17.712 20.277c-2.304 0-4.752-1.296-4.752-6.48 0-5.976 3.744-11.16 6.048-13.32.72-.648 1.296-.576 1.728-.144l1.008 1.008c.36.36.288 1.08-.432 1.728-.72.648-4.464 3.816-4.464 9.072.288-.072.576-.072.864-.072 2.232 0 4.104 1.872 4.104 4.104a4.102 4.102 0 0 1-4.104 4.104zm-12.96 0C2.448 20.277 0 18.981 0 13.797 0 7.821 3.744 2.637 6.048.477c.72-.648 1.296-.576 1.728-.144l1.008 1.008c.36.36.288 1.08-.432 1.728-.72.648-4.464 3.816-4.464 9.072.288-.072.576-.072.864-.072 2.232 0 4.104 1.872 4.104 4.104a4.102 4.102 0 0 1-4.104 4.104z"/>
</svg>
