<svg xmlns="http://www.w3.org/2000/svg" width="417" height="476" viewBox="0 0 417 476">
    <defs>
        <linearGradient id="a" x1="50%" x2="50%" y1="0%" y2="100%">
            <stop offset="0%" stop-color="#C0FFC6"/>
            <stop offset="100%" stop-color="#2DC3C0"/>
        </linearGradient>
    </defs>
    <path fill="url(#a)" fill-rule="evenodd" d="M434.742 277.329c54.162 4.422 139.968 52.276 216.095 127.676 19.975 19.777 37.965 40.148 53.816 60.542a12.539 12.539 0 0 1 0 15.4c-15.85 20.395-33.841 40.76-53.816 60.542-63.8 63.187-135.982 104.62-191.01 123.278 0 0-34.81 9.425-37.625 22.644-2.814 13.225 12.061 19.514 16.405 21.074 60.368 17.732 169.5-32.682 265.036-127.299a639.565 639.565 0 0 0 35.814-38.508c4.476-5.233 12.782-4.193 15.868 1.948 18.389 36.634 28.42 70.081 27.947 97.907-.225 14.973 7.435 20.548 18.175 19.577 7.14-.64 16.237-6.746 24.249-19.542 21.641-35.087 8.242-95.886-31.275-162.694a13.02 13.02 0 0 1 0-13.253c43.838-74.12 55.166-141.695 22.617-173.93-3.726-3.691-8.07-6.639-12.696-9.192-12.591-5.033-21.359 3.724-21.451 20.793.236 27.65-9.39 61.359-27.566 97.577-3.086 6.14-11.392 7.18-15.868 1.948a637.824 637.824 0 0 0-35.82-38.509c-100.779-99.81-213.216-148.795-271.046-122.106-21.037 11.968-15.551 33.407 2.151 34.127" opacity=".178" transform="translate(-419 -236)"/>
</svg>
