<?xml version="1.0" encoding="UTF-8"?>
<svg width="520px" height="449px" viewBox="0 0 520 449" version="1.1" xmlns="http://www.w3.org/2000/svg" xmlns:xlink="http://www.w3.org/1999/xlink">
    <!-- Generator: Sketch 63.1 (92452) - https://sketch.com -->
    <title>banner_xlogo</title>
    <desc>Created with Sketch.</desc>
    <defs>
        <linearGradient x1="68.6102764%" y1="8.5899102%" x2="10.0826322%" y2="87.2782914%" id="linearGradient-1">
            <stop stop-color="#B4EC51" offset="0%"></stop>
            <stop stop-color="#429321" stop-opacity="0.509779283" offset="100%"></stop>
        </linearGradient>
    </defs>
    <g id="Page-1" stroke="none" stroke-width="1" fill="none" fill-rule="evenodd" opacity="0.356817336">
        <g id="evergreen_landing-page_v2" transform="translate(-629.000000, -92.000000)" fill="url(#linearGradient-1)" fill-rule="nonzero">
            <g id="banner_bg" transform="translate(-240.000000, 0.000000)">
                <path d="M1012.07174,165.069779 C1094.41191,111.411147 1205.15049,66.8711895 1265.97935,108.228937 C1290.04063,126.170014 1298.88926,151.638661 1297.9303,195.882344 C1298.00134,214.415826 1294.74499,234.554438 1288.38168,255.553556 C1296.43371,259.697806 1304.36017,264.023631 1312.12945,268.528123 C1421.42165,331.893781 1404.08715,408.622116 1323.18917,421.589512 C1312.0599,423.273444 1300.81739,424.077429 1289.56415,423.994135 C1336.20254,393.474999 1315.94633,353.071055 1263.58006,314.230283 C1257.10982,326.24865 1249.76823,338.322263 1241.59114,350.329227 C1160.7657,483.411414 1058.79946,536.960316 953.901834,540.932591 C910.890104,542.567588 859.694484,514.443442 870.450141,458.392665 C880.334013,487.1752 893.181955,495.887869 924.261118,492.815391 C991.334136,491.926567 1126.76606,423.059169 1203.79923,281.944646 C1204.43439,280.782137 1205.10862,279.554068 1205.81648,278.26478 C1115.04453,227.377877 1037.87418,187.478058 956,197.179996 C964.181498,193.728106 972.765838,191.344491 981.545013,190.086907 C1043.20642,180.22811 1139.4332,194.156701 1230.10661,229.397836 C1244.93287,193.885156 1254.50705,152.254972 1230.68292,126.894241 C1196.23648,90.2549413 1090.18375,118.499792 1012.07174,165.069779 Z" id="banner_xlogo"></path>
            </g>
        </g>
    </g>
</svg>