<svg xmlns="http://www.w3.org/2000/svg" xmlns:xlink="http://www.w3.org/1999/xlink" width="40" height="36" viewBox="0 0 40 36">
    <defs>
        <path id="prefix__a" d="M0 35.897L40 35.897 40 0 0 0z"/>
    </defs>
    <g fill="none" fill-rule="evenodd">
        <path fill="#FEFEFE" d="M3.646 26.667c-1.447 0-2.62-1.191-2.62-2.662V3.686c0-1.47 1.173-2.66 2.62-2.66h28.606c1.447 0 2.62 1.19 2.62 2.66v20.319c0 1.47-1.173 2.662-2.62 2.662H3.646z"/>
        <path fill="#A7E6B2" d="M1.49 26.846c-.299 0-.541-1.208-.541-2.7V3.545c0-1.49.242-2.698.542-2.698h5.916c.3 0 .542 1.208.542 2.698v20.603c0 1.491-.243 2.7-.542 2.7H1.491z"/>
        <path stroke="#00AB1C" stroke-width="1.5" d="M32.252 26.667H3.646c-1.447 0-2.62-1.191-2.62-2.662V3.686c0-1.47 1.173-2.66 2.62-2.66h28.606c1.447 0 2.62 1.19 2.62 2.66v20.319c0 1.47-1.173 2.662-2.62 2.662z"/>
        <mask id="prefix__b" fill="#fff">
            <use xlink:href="#prefix__a"/>
        </mask>
        <path fill="#FEFEFE" d="M8.205 33.846L26.667 33.846 26.667 30.769 8.205 30.769z" mask="url(#prefix__b)"/>
        <path stroke="#00AB1C" stroke-width="1.5" d="M8.205 33.846L26.667 33.846 26.667 30.769 8.205 30.769z" mask="url(#prefix__b)"/>
        <path fill="#FEFEFE" d="M14.359 30.769L20.513 30.769 20.513 26.667 14.359 26.667z" mask="url(#prefix__b)"/>
        <path stroke="#00AB1C" stroke-width="1.5" d="M14.359 30.769L20.513 30.769 20.513 26.667 14.359 26.667z" mask="url(#prefix__b)"/>
        <path fill="#FEFEFE" d="M36.282 36.359h-9.334c-1.288 0-2.333-1.149-2.333-2.564v-16.87c0-1.417 1.045-2.566 2.333-2.566h9.334c1.289 0 2.333 1.149 2.333 2.565v16.871c0 1.415-1.044 2.564-2.333 2.564" mask="url(#prefix__b)"/>
        <path fill="#A7E6B2" d="M30.449 36.359h-4.667c-.644 0-1.167-1.149-1.167-2.564v-16.87c0-1.417.523-2.566 1.167-2.566h4.667c.644 0 1.166 1.149 1.166 2.565v16.871c0 1.415-.522 2.564-1.166 2.564" mask="url(#prefix__b)"/>
        <path stroke="#00AB1C" stroke-width="1.5" d="M36.582 35.897h-9.574c-1.321 0-2.393-1.124-2.393-2.51V16.87c0-1.386 1.072-2.511 2.393-2.511h9.574c1.32 0 2.392 1.125 2.392 2.511v16.517c0 1.386-1.071 2.51-2.392 2.51z" mask="url(#prefix__b)"/>
        <g stroke="#00AB1C" stroke-width="1.5" mask="url(#prefix__b)">
            <path d="M0.03 5.491L3.615 9.428 10.649 0.323" transform="translate(12.308 7.18)"/>
        </g>
        <g stroke="#00AB1C" stroke-width="1.5" mask="url(#prefix__b)">
            <path d="M0.103 3.911L2.58 6.403 7.441 0.636" transform="translate(28.718 21.538)"/>
        </g>
    </g>
</svg>
