<svg xmlns="http://www.w3.org/2000/svg" width="40" height="40" viewBox="0 0 40 40">
    <g fill="none" fill-rule="evenodd">
        <path fill="#9DE4A9" d="M11.961 37.306L9.063 28.238 20 21.771 20.781 38.933 16.471 37.264zM20.267 6.933H27.2V12.8H20.267zM28.06 36.731l2.344-11.235 4.001 2.208-3.172 9.027H28.06z"/>
        <path fill="#00AB1C" fill-rule="nonzero" d="M31.393 23.253l-5.096-3.138c-.366-.226-.86-.107-1.084.256-.226.363-.106.859.256 1.082l5.096 3.138c.366.225.86.11 1.084-.257.226-.365.11-.856-.256-1.081zM23.34 18.04c-.63 0-1.105.595-.961 1.205.057.242.225.463.446.602.152.096.33.153.513.153.345 0 .66-.173.84-.465.385-.623-.098-1.496-.838-1.496zM15.174 20.357c-.223-.351-.738-.464-1.091-.244l-5.088 3.165c-.366.228-.478.715-.247 1.076.138.217.406.344.67.352.15.004.297-.03.421-.107l5.088-3.166c.366-.228.477-.715.247-1.076zM17.45 18.04c-.456 0-.855.32-.956.763-.137.604.341 1.197.957 1.197.455 0 .856-.32.957-.764.137-.608-.337-1.197-.959-1.197z"/>
        <path fill="#00AB1C" fill-rule="nonzero" d="M39.808 35.585c-.283-.326-.776-.36-1.102-.077-.833.724-1.604 1.475-2.697 1.777-1.215.336-2.37.071-3.47-.479l4.07-13.69c.1-.341-.04-.707-.345-.891L32.5 19.944v-6.661c0-.432-.35-.782-.781-.782h-1.563v-2.344c0-.431-.35-.781-.781-.781h-2.46V7.032c0-.432-.35-.781-.782-.781h-3.79V.78c0-.431-.349-.781-.78-.781h-3.125c-.432 0-.782.35-.782.781v5.47h-3.789c-.431 0-.781.35-.781.78v2.345h-2.461c-.431 0-.781.35-.781.781v2.344H8.28c-.431 0-.781.35-.781.782v6.66l-3.764 2.282c-.304.184-.445.55-.344.89l4.06 13.663c-.07-.233-1.32-.387-1.54-.415-2.275-.295-4.005.845-5.643 2.27-.326.283-.36.776-.077 1.102.27.31.773.363 1.102.077 1.688-1.468 3.591-2.586 5.825-1.47 2.02 1.011 4.112 1.444 6.216.337 1.698-.894 3.335-1.665 5.23-.763l1.947.927c1.666.794 3.568.776 5.218-.05 1.017-.508 2.051-1.185 3.213-1.265 1.139-.078 2.239.346 3.24.846 1.321.661 2.869.794 4.288.389 1.307-.373 2.259-1.206 3.26-2.076.326-.283.36-.777.077-1.102zm-8.87-21.521v4.933l-8.141-4.933h8.14zM19.217 1.563h1.563V6.25H19.22V1.563zm-4.57 6.25h10.704v1.563H14.648V7.813zm-5.585 6.25h8.14l-8.14 4.934v-4.933zm10.156 22.434c0-.139-1.114-.395-1.26-.427-1.36-.294-2.819-.107-4.052.542-.894.47-1.757 1.02-2.78 1.151l-.005.001c-.598.073-1.21.029-1.788-.14L5.06 23.248 19.22 14.67v21.827zM11.406 12.5V10.94h17.188V12.5H11.406zm19.69 23.679c.008-.242-2.191-.24-2.338-.224-1.357.143-2.53.841-3.726 1.44-1.414.707-2.869.503-4.25-.155V14.67l14.157 8.578-3.844 12.932z"/>
    </g>
</svg>
