<svg xmlns="http://www.w3.org/2000/svg" width="520" height="449" viewBox="0 0 520 449">
    <defs>
        <linearGradient id="prefix__a" x1="68.61%" x2="10.083%" y1="8.59%" y2="87.278%">
            <stop offset="0%" stop-color="#B4EC51"/>
            <stop offset="100%" stop-color="#429321" stop-opacity=".51"/>
        </linearGradient>
    </defs>
    <path fill="url(#prefix__a)" d="M1012.072 165.07c82.34-53.659 193.078-98.199 253.907-56.841 24.062 17.941 32.91 43.41 31.951 87.653.071 18.534-3.185 38.672-9.548 59.672 8.052 4.144 15.978 8.47 23.747 12.974 109.293 63.366 91.958 140.094 11.06 153.062-11.13 1.683-22.372 2.487-33.625 2.404 46.639-30.519 26.382-70.923-25.984-109.764-6.47 12.019-13.812 24.092-21.989 36.1-80.825 133.081-182.792 186.63-287.69 190.603-43.01 1.635-94.207-26.49-83.45-82.54 9.883 28.782 22.731 37.495 53.81 34.422 67.073-.888 202.505-69.756 279.538-210.87.635-1.163 1.31-2.39 2.017-3.68-90.771-50.887-167.942-90.787-249.816-81.085 8.181-3.452 16.766-5.836 25.545-7.093 61.661-9.859 157.888 4.07 248.562 39.31 14.826-35.512 24.4-77.142.576-102.503-34.447-36.64-140.5-8.394-218.611 38.176z" opacity=".357" transform="translate(-869 -92)"/>
</svg>
