<svg xmlns="http://www.w3.org/2000/svg" width="36" height="40" viewBox="0 0 36 40">
    <g fill="#00AB1C">
        <path d="M5.628 26c-.414 0-.75.258-.75.577v8.846c0 .319.336.577.75.577s.75-.258.75-.577v-8.846c0-.319-.336-.577-.75-.577zM11.75 26c-.414 0-.75.258-.75.577v8.846c0 .319.336.577.75.577s.75-.258.75-.577v-8.846c0-.319-.336-.577-.75-.577zM17.75 26c-.414 0-.75.258-.75.577v8.846c0 .319.336.577.75.577s.75-.258.75-.577v-8.846c0-.319-.336-.577-.75-.577zM23.75 26c-.414 0-.75.258-.75.577v8.846c0 .319.336.577.75.577s.75-.258.75-.577v-8.846c0-.319-.336-.577-.75-.577zM29.75 26c-.414 0-.75.258-.75.577v8.846c0 .319.336.577.75.577s.75-.258.75-.577v-8.846c0-.319-.336-.577-.75-.577z"/>
        <path d="M.594 40h33.934c.331-.008.595-.283.594-.618V23.02c0-.019-.001-.037-.003-.055v-.006l-.006-.043c-.01-.06-.03-.117-.057-.17l-.004-.008-.02-.033-.01-.018-.015-.021-.02-.026-.01-.01c-.009-.012-.018-.023-.029-.033l-.002-.002c-.027-.028-.058-.053-.09-.074l-.046-.029h-.001c-.018-.01-.035-.018-.054-.026h-.013l-16.418-6.842v-1.198c1.232-.36 2.084-1.496 2.096-2.793.004-1.37-.941-2.555-2.265-2.842V5.837h.545c.273-.002.51-.191.576-.46l1.139-4.61c.044-.183.004-.377-.109-.526-.111-.149-.283-.237-.468-.241h-4.555c-.184.004-.356.092-.468.24-.112.148-.151.339-.108.52l1.14 4.615c.064.269.301.459.575.462h.545v3.492c0 .332.266.601.594.601.68 0 1.295.415 1.555 1.052.261.636.117 1.369-.365 1.856-.481.487-1.205.633-1.834.37-.63-.264-1.04-.886-1.04-1.575 0-.331-.266-.6-.594-.6-.33-.001-.6.266-.606.6.01 1.44 1.053 2.66 2.46 2.877v1.11L.359 22.464h.004c-.014.006-.023.013-.036.02l-.014.007-.03.018-.02.013-.016.012c-.115.082-.196.204-.23.343l-.004.02-.004.024-.006.036v.016L0 23.018v16.364c-.001.335.263.61.594.618zM16.886 4.635l-.842-3.433h3.034l-.842 3.433h-1.35zm.868 11.896l13.84 6h-28l14.16-6zM1.56 23.778h32v14.847h-32V23.778z"/>
    </g>
</svg>
