<svg xmlns="http://www.w3.org/2000/svg" width="45" height="45" viewBox="0 0 45 45">
    <g fill="none" fill-rule="evenodd">
        <g>
            <path fill="#FEFEFE" d="M20 9.5c0 5.246-4.254 9.5-9.5 9.5S1 14.746 1 9.5C1 4.252 5.254 0 10.5 0S20 4.253 20 9.5" transform="translate(0 1) translate(24 9)"/>
            <path fill="#A7E6B2" d="M13 10.5c0 3.59-2.91 6.5-6.5 6.5S0 14.09 0 10.5 2.91 4 6.5 4 13 6.91 13 10.5" transform="translate(0 1) translate(24 9)"/>
            <path stroke="#00AB1C" stroke-width="1.5" d="M20 9.5c0 5.246-4.254 9.5-9.5 9.5S1 14.746 1 9.5C1 4.252 5.254 0 10.5 0S20 4.253 20 9.5z" transform="translate(0 1) translate(24 9)"/>
            <g stroke="#00AB1C" stroke-width="1.5">
                <path d="M0 8.5C0 9.88 1.118 11 2.5 11S5 9.88 5 8.5C5 7.119 3.882 6 2.5 6S0 4.88 0 3.5C0 2.118 1.118 1 2.5 1S5 2.118 5 3.5M2.5 0L2.5 13" transform="translate(0 1) translate(24 9) translate(8 3)"/>
            </g>
        </g>
        <g>
            <path fill="#FEFEFE" d="M20 9.5c0 5.246-4.254 9.5-9.5 9.5S1 14.746 1 9.5C1 4.252 5.254 0 10.5 0S20 4.253 20 9.5" transform="translate(0 1) translate(4 24)"/>
            <path fill="#A7E6B2" d="M13 10.5c0 3.59-2.91 6.5-6.5 6.5S0 14.09 0 10.5 2.91 4 6.5 4 13 6.91 13 10.5" transform="translate(0 1) translate(4 24)"/>
            <path stroke="#00AB1C" stroke-width="1.5" d="M20 9.5c0 5.246-4.254 9.5-9.5 9.5S1 14.746 1 9.5C1 4.252 5.254 0 10.5 0S20 4.253 20 9.5z" transform="translate(0 1) translate(4 24)"/>
            <g stroke="#00AB1C" stroke-width="1.5">
                <path d="M0 8.5C0 9.88 1.118 11 2.5 11S5 9.88 5 8.5C5 7.119 3.882 6 2.5 6S0 4.88 0 3.5C0 2.118 1.118 1 2.5 1S5 2.118 5 3.5M2.5 0L2.5 13" transform="translate(0 1) translate(4 24) translate(8 3)"/>
            </g>
        </g>
        <path fill="#FEFEFE" d="M20 9.5c0 5.246-4.254 9.5-9.5 9.5S1 14.746 1 9.5C1 4.252 5.254 0 10.5 0S20 4.253 20 9.5" transform="translate(0 1)"/>
        <path fill="#A7E6B2" d="M13 10.5c0 3.59-2.91 6.5-6.5 6.5S0 14.09 0 10.5 2.91 4 6.5 4 13 6.91 13 10.5" transform="translate(0 1)"/>
        <path stroke="#00AB1C" stroke-width="1.5" d="M20 9.5c0 5.246-4.254 9.5-9.5 9.5S1 14.746 1 9.5C1 4.252 5.254 0 10.5 0S20 4.253 20 9.5z" transform="translate(0 1)"/>
        <g stroke="#00AB1C" stroke-width="1.5">
            <path d="M0 8.5C0 9.88 1.118 11 2.5 11S5 9.88 5 8.5C5 7.119 3.882 6 2.5 6S0 4.88 0 3.5C0 2.118 1.118 1 2.5 1S5 2.118 5 3.5M2.5 0L2.5 13" transform="translate(0 1) translate(8 3)"/>
        </g>
    </g>
</svg>
