<svg xmlns="http://www.w3.org/2000/svg" width="180" height="84" viewBox="0 0 180 84">
    <defs>
        <radialGradient id="prefix__a" cx="70.27%" cy="39.554%" r="138.165%" fx="70.27%" fy="39.554%" gradientTransform="matrix(-.7064 .57248 -.27538 -.45779 1.308 .174)">
            <stop offset="0%" stop-color="#85C5E9"/>
            <stop offset="7%" stop-color="#81C0E6"/>
            <stop offset="16%" stop-color="#75B2DE"/>
            <stop offset="25%" stop-color="#629AD1"/>
            <stop offset="31%" stop-color="#5186C5"/>
            <stop offset="44.774%" stop-color="#4471B6"/>
            <stop offset="60.055%" stop-color="#294697"/>
            <stop offset="86.013%" stop-color="#5186C5"/>
            <stop offset="100%" stop-color="#85C5E9"/>
        </radialGradient>
    </defs>
    <g fill="none">
        <path fill="url(#prefix__a)" d="M109.337 13.67C124.783 3.631 145.555-4.7 156.965 3.036c4.514 3.357 6.174 8.121 5.994 16.399.013 3.548-.627 7.411-1.876 11.44 1.515.774 3.006 1.584 4.468 2.427 20.543 11.847 17.285 26.192 2.079 28.617-2.092.315-4.206.465-6.32.45 8.778-5.714 4.948-13.282-4.926-20.553-1.18 2.17-2.514 4.347-3.993 6.513-15.162 24.897-34.288 34.915-53.965 35.658-8.068.306-17.672-4.955-15.654-15.441 1.854 5.384 4.264 7.014 10.094 6.44 12.581-.167 37.986-13.05 52.436-39.45l.236-.431c-17.05-9.506-31.548-16.956-46.928-15.143 1.538-.645 3.151-1.09 4.802-1.326 11.587-1.843 29.668.76 46.708 7.345 2.846-6.703 4.756-14.642.225-19.453-6.462-6.854-26.355-1.57-41.008 7.142z"/>
        <path fill="#009640" d="M62.821 47.568L62.821 43.249 77.989 43.249 78 43.249 78 37.157 62.792 37.157 62.792 33.924 78 33.924 78 27 54 27 54 54 78 54 78 47.568 77.989 47.568zM89.817 47.569L89.817 43.251 104.996 43.251 105 43.251 105 37.155 89.788 37.155 89.788 33.912 105 33.912 105 27 81 27 81 54 105 54 105 47.569 104.996 47.569zM50.27 41.345c1.288-.218 2.231-1.349 2.23-2.673v-8.177-.122C52.499 28.51 51.009 27 49.171 27H28.5v27h8.502v-9.438h4.257v.012c1.461.014 2.638 1.22 2.636 2.702V54h8.599v-9.995c.004-1.32-.939-2.448-2.224-2.66zm-13.256-7.606h5.622c.353 0 .692.141.942.395.25.253.39.597.39.955v2.16c-.002.746-.598 1.35-1.332 1.35h-5.622v-4.86zM25.5 35.642v-4.586c-.007-2.236-1.845-4.047-4.116-4.056H4.11C1.84 27.009.003 28.821 0 31.056V49.95c.003 2.234 1.84 4.044 4.11 4.05h17.274c2.27-.006 4.11-1.815 4.116-4.05V38.344H12.055v5.69h4.662v1.85c-.002.745-.615 1.348-1.371 1.35h-5.208c-.755-.002-1.367-.604-1.368-1.348V35.089c0-.358.144-.702.401-.955.258-.254.607-.396.971-.395h5.204c.757 0 1.37.605 1.371 1.35v.553H25.5zM132 27L123.302 27 123.302 41.867 115.182 27 106.5 27 106.5 54 115.161 54 115.161 39.141 123.424 54 132 54z"/>
    </g>
</svg>
