<svg xmlns="http://www.w3.org/2000/svg" width="87" height="41" viewBox="0 0 87 41">
    <g fill="#FFF">
        <path d="M52.846 6.672c7.466-4.9 17.506-8.967 23.02-5.19 2.182 1.638 2.984 3.964 2.897 8.004.007 1.732-.302 3.617-.906 5.583.731.378 1.452.774 2.16 1.185 9.929 5.783 8.354 12.785 1.004 13.968-1.011.154-2.032.227-3.055.22 4.243-2.79 2.392-6.483-2.38-10.032-.571 1.059-1.216 2.122-1.93 3.18C66.328 35.74 57.083 40.63 47.573 40.993c-3.9.15-8.542-2.419-7.567-7.537.897 2.628 2.061 3.424 4.88 3.143 6.08-.081 18.359-6.37 25.343-19.255l.114-.21c-8.24-4.64-15.248-8.276-22.682-7.392.744-.315 1.524-.532 2.321-.647 5.6-.9 14.34.37 22.576 3.585 1.376-3.271 2.299-7.147.109-9.495-3.124-3.345-12.739-.766-19.82 3.486zM30.364 23.218L30.364 21.109 37.695 21.109 37.7 21.109 37.7 18.136 30.349 18.136 30.349 16.558 37.7 16.558 37.7 13.179 26.1 13.179 26.1 26.357 37.7 26.357 37.7 23.218 37.695 23.218z"/>
        <path d="M43.412 23.218L43.412 21.11 50.748 21.11 50.75 21.11 50.75 18.135 43.398 18.135 43.398 16.552 50.75 16.552 50.75 13.179 39.15 13.179 39.15 26.357 50.75 26.357 50.75 23.218 50.748 23.218zM24.297 20.18c.623-.106 1.078-.658 1.078-1.304v-3.992-.059c0-.91-.72-1.646-1.609-1.646h-9.991v13.178h4.11v-4.606h2.057v.006c.706.006 1.275.595 1.274 1.318v3.282h4.156V21.48c.002-.645-.454-1.195-1.075-1.299zm-6.407-3.712h2.717c.171 0 .335.069.456.192.12.124.188.292.188.467v1.054c0 .364-.289.659-.644.659H17.89v-2.372zM12.325 17.397v-2.239c-.003-1.09-.892-1.975-1.99-1.98H1.987c-1.097.005-1.984.89-1.986 1.98v9.222c.002 1.09.89 1.974 1.986 1.977h8.35c1.097-.003 1.986-.886 1.989-1.977v-5.665H5.826v2.778H8.08v.903c-.001.363-.297.658-.663.659H4.9c-.365-.001-.66-.295-.661-.658v-5.27c0-.175.07-.343.194-.467.124-.123.293-.193.469-.192h2.515c.366 0 .663.295.663.659v.27h4.245zM63.8 13.179L59.596 13.179 59.596 20.435 55.671 13.179 51.475 13.179 51.475 26.357 55.661 26.357 55.661 19.105 59.655 26.357 63.8 26.357z"/>
    </g>
</svg>
