<svg xmlns="http://www.w3.org/2000/svg" xmlns:xlink="http://www.w3.org/1999/xlink" width="40" height="25" viewBox="0 0 40 25">
    <defs>
        <path id="prefix__a" d="M0 24.444L39.613 24.444 39.613 0.778 0 0.778z"/>
    </defs>
    <g fill="none" fill-rule="evenodd">
        <path fill="#FEFEFE" d="M2.481 20.581L24.573 20.581 24.573 1.667 2.481 1.667z"/>
        <path fill="#A7E6B2" d="M2.481 13.667L16.481 13.667 16.481 1.667 2.481 1.667z"/>
        <path stroke="#00AB1C" stroke-width="1.5" d="M2.481 20.581L24.573 20.581 24.573 1.667 2.481 1.667z"/>
        <path fill="#FEFEFE" d="M24.574 6.095L24.574 20.58 39.057 20.58 39.057 12.024 34.114 6.095z"/>
        <g transform="translate(0 .333)">
            <path stroke="#00AB1C" stroke-width="1.5" d="M24.574 20.248L39.057 20.248 39.057 11.692 34.114 5.763 24.574 5.763z"/>
            <path fill="#FEFEFE" d="M12.226 20.942c0 1.628-1.32 2.947-2.946 2.947-1.628 0-2.948-1.32-2.948-2.947s1.32-2.946 2.948-2.946c1.627 0 2.946 1.32 2.946 2.946"/>
            <path stroke="#00AB1C" stroke-width="1.5" d="M12.226 20.942c0 1.628-1.32 2.947-2.946 2.947-1.628 0-2.948-1.32-2.948-2.947s1.32-2.946 2.948-2.946c1.627 0 2.946 1.32 2.946 2.946z"/>
            <path fill="#FEFEFE" d="M31.816 20.942c0 1.628-1.32 2.947-2.947 2.947s-2.947-1.32-2.947-2.947 1.32-2.946 2.947-2.946c1.628 0 2.947 1.32 2.947 2.946"/>
            <path stroke="#00AB1C" stroke-width="1.5" d="M31.816 20.942c0 1.628-1.32 2.947-2.947 2.947s-2.947-1.32-2.947-2.947 1.32-2.946 2.947-2.946c1.628 0 2.947 1.32 2.947 2.946z"/>
            <path fill="#FFF" d="M39.057 13.005L29.598 13.005 29.598 9.384 37.134 9.384 39.057 11.691z"/>
            <path stroke="#00AB1C" stroke-width="1.5" d="M39.057 13.005L29.598 13.005 29.598 9.384 37.134 9.384 39.057 11.691z"/>
            <mask id="prefix__b" fill="#fff">
                <use xlink:href="#prefix__a"/>
            </mask>
            <path fill="#FEFEFE" d="M0.557 20.248L2.482 20.248 2.482 15.744 0.557 15.744z" mask="url(#prefix__b)"/>
            <path stroke="#00AB1C" stroke-width="1.5" d="M0.557 20.248L2.482 20.248 2.482 15.744 0.557 15.744z" mask="url(#prefix__b)"/>
        </g>
    </g>
</svg>
