<svg xmlns="http://www.w3.org/2000/svg" width="41" height="40" viewBox="0 0 41 40">
    <g fill="none" fill-rule="evenodd">
        <rect width="9" height="17" x="16" y="12" fill="#9DE4A9" rx="2"/>
        <rect width="3" height="28" x="36" y="6" fill="#9DE4A9" rx="1.5"/>
        <path fill="#00AB1C" fill-rule="nonzero" d="M13 23.068V31c0 .513.386.936.883.993L14 32h11v2H14c-1.598 0-2.904-1.249-2.995-2.824L11 31v-7.932h2zM25 6v2H14c-.513 0-.936.386-.993.883L13 9v7.071h-2V9c0-1.598 1.249-2.904 2.824-2.995L14 6h11z"/>
        <path fill="#00AB1C" fill-rule="nonzero" d="M26 .827c.227 0 .452.038.666.114l13 4.588c.8.282 1.334 1.038 1.334 1.886v25.17c0 .848-.535 1.604-1.334 1.886l-13 4.588c-1.042.368-2.184-.179-2.552-1.22-.075-.214-.114-.44-.114-.666V2.827c0-1.105.895-2 2-2zm13 6.588L26 2.826v34.347l13-4.588V7.415z"/>
        <rect width="2" height="6" x="28" y="17" fill="#00AB1C" rx="1"/>
        <path fill="#00AB1C" fill-rule="nonzero" d="M6.5 13l13 7-13 7v-3.5H2c-1.105 0-2-.895-2-2v-2c0-1.105.895-2 2-2h4.5V13zm2 3.348V19.5H2v2h6.5v2.151L15.282 20 8.5 16.348z"/>
    </g>
</svg>
