<svg 
 xmlns="http://www.w3.org/2000/svg"
 xmlns:xlink="http://www.w3.org/1999/xlink"
 width="51px" height="90px">
<path fill-rule="evenodd"  fill="rgb(255, 255, 255)"
 d="M27.309,39.594 C16.338,36.706 12.810,33.719 12.810,29.067 C12.810,23.730 17.692,20.009 25.859,20.009 C34.461,20.009 37.651,24.171 37.941,30.291 L48.622,30.291 C48.283,21.870 43.209,14.134 33.108,11.636 L33.108,0.914 L18.610,0.914 L18.610,11.490 C9.234,13.546 1.695,19.715 1.695,29.165 C1.695,40.476 10.926,46.106 24.409,49.387 C36.491,52.325 38.908,56.633 38.908,61.187 C38.908,64.565 36.540,69.951 25.859,69.951 C15.903,69.951 11.989,65.447 11.457,59.669 L0.825,59.669 C1.405,70.392 9.331,76.414 18.610,78.422 L18.610,89.047 L33.108,89.047 L33.108,78.520 C42.532,76.708 50.023,71.175 50.023,61.138 C50.023,47.232 38.279,42.483 27.309,39.594 Z"/>
</svg>