<svg 
 xmlns="http://www.w3.org/2000/svg"
 xmlns:xlink="http://www.w3.org/1999/xlink"
 width="89px" height="90px">
<path fill-rule="evenodd"  fill="rgb(255, 255, 255)"
 d="M18.080,39.056 C25.120,52.912 36.463,64.222 50.299,71.322 L61.055,60.550 C62.375,59.228 64.331,58.788 66.042,59.375 C71.518,61.187 77.433,62.166 83.496,62.166 C86.185,62.166 88.385,64.370 88.385,67.062 L88.385,84.151 C88.385,86.843 86.185,89.047 83.496,89.047 C37.587,89.047 0.381,51.786 0.381,5.810 C0.381,3.117 2.581,0.914 5.270,0.914 L22.382,0.914 C25.071,0.914 27.271,3.117 27.271,5.810 C27.271,11.930 28.249,17.806 30.058,23.290 C30.596,25.003 30.205,26.913 28.836,28.284 L18.080,39.056 Z"/>
</svg>