<svg xmlns="http://www.w3.org/2000/svg" width="30" height="40" viewBox="0 0 30 40">
    <g fill="none" fill-rule="evenodd">
        <path fill="#FEFEFE" d="M0.646 0.645L0.646 35.857 3.532 38.697 7.444 35.246 10.953 38.697 14.864 35.246 18.372 38.697 22.283 35.246 25.791 38.697 29.034 35.837 29.034 6.559 22.495 0.645z"/>
        <path fill="#A7E6B2" d="M1 1H5V37H1z"/>
        <path fill="#00AB1C" d="M.001 0v36.127l3.507 3.45 3.911-3.45 3.509 3.45 3.91-3.45 3.509 3.45 3.91-3.45 3.51 3.45 3.91-3.45V6.273L22.744 0H.001zm1.29 35.588V1.29h20.954l6.143 5.554v28.701l-2.574 2.27-2.652-2.608-.858-.843-.899.795-3.01 2.656-2.653-2.608-.857-.843-.9.795-3.01 2.656-2.653-2.608-.855-.843-.9.795-3.01 2.656-2.266-2.227z"/>
        <path fill="#FEFEFE" d="M5.973 27.892H20.48 5.973z"/>
        <path stroke="#00AB1C" stroke-width="1.5" d="M5.972 27.893L20.479 27.893"/>
        <path fill="#FEFEFE" d="M5.973 23.913h8.865-8.865z"/>
        <path stroke="#00AB1C" stroke-width="1.5" d="M5.972 23.912L14.838 23.912"/>
        <path fill="#FEFEFE" d="M5.973 31.22h17.732H5.973z"/>
        <path stroke="#00AB1C" stroke-width="1.5" d="M5.972 31.219L23.705 31.219"/>
        <g stroke="#00AB1C" stroke-width="1.5">
            <path d="M.069 10.353c0 1.358 1.1 2.457 2.456 2.457 1.358 0 2.458-1.1 2.458-2.457 0-1.357-1.1-2.457-2.458-2.457C1.17 7.896.07 6.796.07 5.44c0-1.357 1.1-2.457 2.456-2.457 1.358 0 2.458 1.1 2.458 2.457M2.526 1.146L2.526 14.648" transform="translate(12.903 3.448)"/>
        </g>
    </g>
</svg>
