<svg xmlns="http://www.w3.org/2000/svg" width="40" height="40" viewBox="0 0 40 40">
    <g fill="none" fill-rule="evenodd">
        <path d="M0 0H40V40H0z"/>
        <g transform="translate(0 .533)">
            <circle cx="24.533" cy="22.933" r="8.533" fill="#9DE4A9"/>
            <path fill="#9DE4A9" d="M24 1.067H26.133V6.934H24z"/>
            <path fill="#00AB1C" fill-rule="nonzero" d="M39.922 21.066c-.359-3.612-1.973-7.018-4.544-9.59C33.18 9.28 30.49 7.868 27.66 7.24V5.254c1.155-.287 2.015-1.334 2.015-2.577 0-1.465-1.192-2.657-2.657-2.657h-5.625c-1.464 0-2.656 1.192-2.656 2.657 0 1.243.86 2.29 2.015 2.577v1.99c-2.821.631-5.502 2.042-7.693 4.233-.48.48-.922.982-1.327 1.505-.02-.001-.039-.003-.059-.003H6.107c-.432 0-.781.35-.781.781 0 .432.35.782.78.782h4.564c-.573.959-1.034 1.966-1.386 3.003H.781c-.431 0-.781.35-.781.78 0 .432.35.782.781.782h8.061c-.225.988-.354 1.994-.387 3.003H5c-.431 0-.781.35-.781.781 0 .432.35.781.781.781h3.48c.066 1.012.228 2.018.487 3.003h-5.06c-.432 0-.782.35-.782.782 0 .431.35.78.781.78h5.56c.767 2.028 1.964 3.928 3.594 5.558 2.574 2.574 5.983 4.188 9.599 4.545.516.051 1.032.077 1.548.077 3.049 0 6.059-.883 8.613-2.546.361-.235.463-.72.228-1.08-.236-.362-.72-.465-1.081-.23-5.59 3.641-13.077 2.854-17.802-1.87-5.544-5.545-5.544-14.565 0-20.11 5.543-5.543 14.564-5.543 20.108 0 4.719 4.72 5.51 12.2 1.882 17.788-.235.362-.132.845.23 1.08.361.235.845.132 1.08-.23 1.939-2.985 2.811-6.59 2.457-10.153zM20.301 2.676c0-.602.49-1.093 1.093-1.093h5.625c.604 0 1.094.49 1.094 1.094 0 .603-.49 1.094-1.094 1.094h-5.624c-.604 0-1.094-.491-1.094-1.094zm2.015 4.3V5.333h3.782v1.64c-1.256-.149-2.527-.148-3.782.003z"/>
            <path fill="#00AB1C" fill-rule="nonzero" d="M34.826 32.46c-.206 0-.407.085-.552.23-.147.145-.23.347-.23.552 0 .206.083.407.23.553.145.146.346.228.552.228.205 0 .406-.082.552-.228.145-.146.229-.347.229-.553 0-.205-.083-.407-.229-.552-.146-.145-.347-.23-.552-.23zM24.219 10.516c-6.683 0-12.12 5.437-12.12 12.12 0 6.683 5.437 12.12 12.12 12.12 6.682 0 12.12-5.437 12.12-12.12 0-6.683-5.438-12.12-12.12-12.12zm0 22.677c-5.821 0-10.557-4.736-10.557-10.557 0-5.821 4.736-10.557 10.557-10.557 5.821 0 10.557 4.736 10.557 10.557 0 5.82-4.736 10.557-10.557 10.557z"/>
            <path fill="#00AB1C" fill-rule="nonzero" d="M29.16 16.59l-3.869 3.869c-.323-.16-.687-.25-1.072-.25s-.749.09-1.073.25l-1.731-1.732c-.305-.305-.8-.305-1.105 0-.305.305-.305.8 0 1.105l1.732 1.731c-.16.324-.25.688-.25 1.073 0 1.338 1.088 2.427 2.427 2.427 1.338 0 2.427-1.089 2.427-2.427 0-.385-.09-.749-.25-1.073l3.756-3.756.114-.113c.305-.305.305-.8 0-1.105-.306-.305-.8-.305-1.105 0zM24.22 23.5c-.477 0-.865-.387-.865-.864s.388-.865.865-.865.865.388.865.865-.388.865-.865.865zM32.572 21.864h-.724c-.431 0-.781.35-.781.781 0 .432.35.782.781.782h.724c.431 0 .781-.35.781-.782 0-.431-.35-.78-.781-.78zM16.59 21.845h-.724c-.432 0-.781.35-.781.781 0 .432.35.781.78.781h.725c.43 0 .78-.35.78-.78 0-.432-.35-.782-.78-.782zM24.228 15.788c.432 0 .782-.35.782-.782v-.723c0-.432-.35-.782-.782-.782-.431 0-.78.35-.78.782v.723c0 .432.349.782.78.782zM24.21 29.484c-.432 0-.782.35-.782.781v.724c0 .431.35.781.781.781.432 0 .782-.35.782-.781v-.724c0-.431-.35-.781-.782-.781zM.781 26.675c-.205 0-.407.084-.552.229-.145.145-.229.347-.229.552 0 .207.084.407.229.553.145.145.347.229.552.229.206 0 .407-.084.553-.23.145-.145.228-.346.228-.552 0-.205-.083-.407-.228-.552-.146-.145-.347-.229-.553-.229z"/>
        </g>
    </g>
</svg>
