<svg xmlns="http://www.w3.org/2000/svg" width="41" height="41" viewBox="0 0 41 41">
    <g fill="#00AB1C">
        <path d="M7.147 31.35c-.569 0-1.116.14-1.6.407-2.557-3.269-3.96-7.329-3.96-11.488C1.587 9.966 9.99 1.584 20.32 1.584c1.255 0 2.51.124 3.73.37.43.087.848-.19.935-.62.087-.428-.19-.845-.62-.932C23.04.135 21.68 0 20.318 0 14.89 0 9.789 2.108 5.95 5.937 2.114 9.765 0 14.855 0 20.269c0 4.554 1.55 8.998 4.372 12.561-.363.542-.558 1.178-.558 1.845 0 .888.347 1.723.976 2.35.63.629 1.467.975 2.357.975.89 0 1.728-.346 2.358-.974.63-.628.976-1.463.976-2.352 0-.888-.347-1.723-.976-2.35-.63-.629-1.467-.975-2.358-.975zm1.235 4.556c-.33.33-.768.51-1.235.51-.466 0-.904-.18-1.234-.51-.33-.329-.512-.766-.512-1.231 0-.466.182-.903.512-1.232.33-.33.768-.51 1.234-.51.467 0 .905.181 1.235.51.33.329.511.766.511 1.232 0 .465-.181.902-.511 1.231zM36.62 8.169c.865-1.291.726-3.057-.417-4.195-.63-.628-1.47-.974-2.36-.974-.893 0-1.731.346-2.362.974-.63.628-.977 1.463-.977 2.351 0 .889.347 1.724.977 2.352.631.628 1.47.974 2.361.974.57 0 1.118-.142 1.604-.408 2.56 3.269 3.964 7.329 3.964 11.488 0 10.303-8.415 18.685-18.759 18.685-1.245 0-2.49-.122-3.7-.363-.43-.086-.85.192-.935.621-.086.43.193.846.623.932 1.313.261 2.663.394 4.012.394 5.436 0 10.546-2.108 14.389-5.937C38.883 31.235 41 26.145 41 20.731c0-4.554-1.553-8.999-4.38-12.562zm-4.014-.612c-.33-.329-.513-.766-.513-1.232 0-.465.182-.902.513-1.231.33-.33.77-.51 1.236-.51.467 0 .906.18 1.237.51.681.679.681 1.784 0 2.463-.33.329-.77.51-1.237.51-.467 0-.906-.181-1.236-.51z"/>
        <path d="M17.213 34.203c0 .44.357.797.796.797h4.981c.44 0 .797-.357.797-.797V32.66c1.048-.282 2.049-.697 2.99-1.24l1.09 1.091c.15.15.352.233.564.233.21 0 .414-.084.563-.233l3.52-3.524c.312-.311.312-.816 0-1.126l-1.088-1.09c.542-.94.957-1.942 1.239-2.99h1.538c.44 0 .797-.356.797-.797v-4.981c0-.44-.357-.797-.797-.797h-1.538c-.282-1.047-.697-2.049-1.24-2.99l1.084-1.083c.15-.15.233-.352.233-.564 0-.21-.084-.414-.233-.563l-3.524-3.521c-.31-.311-.815-.311-1.126 0l-1.082 1.082c-.941-.542-1.942-.957-2.99-1.24v-1.53c0-.44-.357-.796-.797-.796h-4.98c-.44 0-.797.357-.797.797v1.53c-1.048.282-2.049.697-2.99 1.24l-1.082-1.083c-.31-.31-.815-.311-1.126 0L8.49 12.005c-.15.15-.233.352-.233.563 0 .212.084.415.233.564l1.083 1.083c-.542.941-.957 1.943-1.239 2.99H6.8c-.44 0-.796.357-.796.797L6 22.983c0 .211.084.414.233.564.15.15.352.233.564.233h1.538c.282 1.048.697 2.05 1.24 2.99l-1.09 1.09c-.31.31-.311.815 0 1.126l3.52 3.524c.15.15.353.233.564.233.212 0 .414-.084.564-.233l1.09-1.09c.941.542 1.942.957 2.99 1.239v1.544zm-2.678-4.46c-.315-.203-.73-.159-.996.107l-.97.97-2.394-2.397.969-.97c.265-.265.31-.68.106-.995-.723-1.118-1.23-2.343-1.51-3.642-.078-.367-.403-.63-.778-.63H7.594l.001-3.387h1.367c.375 0 .7-.262.779-.63.279-1.298.786-2.524 1.509-3.641.204-.316.16-.73-.106-.996l-.963-.963 2.397-2.395.961.962c.266.266.68.31.996.106 1.118-.722 2.343-1.23 3.642-1.509.367-.08.629-.404.629-.779v-1.36h3.388v1.36c0 .375.262.7.629.779 1.299.279 2.524.786 3.641 1.509.316.204.73.16.996-.106l.962-.962 2.397 2.395-.963.963c-.266.265-.31.68-.106.996.722 1.117 1.23 2.343 1.509 3.641.079.368.403.63.779.63h1.369v3.388h-1.37c-.375 0-.699.262-.778.629-.279 1.299-.787 2.524-1.509 3.642-.204.315-.16.73.106.996l.969.969-2.395 2.396-.97-.97c-.265-.265-.68-.309-.996-.105-1.117.722-2.342 1.23-3.641 1.509-.367.08-.63.403-.63.779v1.375h-3.387v-1.375c0-.375-.262-.7-.63-.779-1.298-.279-2.523-.787-3.64-1.51z"/>
        <path d="M27 20.5c0-3.584-2.916-6.5-6.5-6.5S14 16.916 14 20.5s2.916 6.5 6.5 6.5 6.5-2.916 6.5-6.5zm-11.427 0c0-2.717 2.21-4.927 4.927-4.927 2.717 0 4.927 2.21 4.927 4.927 0 2.716-2.21 4.927-4.927 4.927-2.717 0-4.927-2.21-4.927-4.927zM27.5 3c.132 0 .26-.053.354-.146.092-.094.146-.223.146-.354 0-.131-.053-.26-.146-.354C27.76 2.053 27.632 2 27.5 2c-.132 0-.26.053-.353.146-.093.094-.147.222-.147.354 0 .132.054.26.147.354.093.093.221.146.353.146zM13.5 38c-.131 0-.26.054-.354.146-.092.093-.146.223-.146.354 0 .132.054.26.146.354.093.092.223.146.354.146.131 0 .26-.054.354-.146.092-.093.146-.223.146-.354 0-.131-.054-.26-.146-.354-.093-.092-.223-.146-.354-.146z"/>
    </g>
</svg>
