<svg xmlns="http://www.w3.org/2000/svg" xmlns:xlink="http://www.w3.org/1999/xlink" width="40" height="40" viewBox="0 0 40 40">
    <defs>
        <path id="prefix__a" d="M0 1.369L39.736 1.369 39.736 32.857 0 32.857z"/>
    </defs>
    <g fill="none" fill-rule="evenodd">
        <path fill="#FEFEFE" d="M6.75 18.445c-1.85 0-3.355-1.504-3.355-3.353 0-1.848 1.505-3.351 3.355-3.351 1.848 0 3.352 1.503 3.352 3.351 0 1.849-1.504 3.353-3.352 3.353m4.862-.891c.76-2.232-.004-5.092-1.737-6.514-.905-.743-2.017-1.115-3.125-1.115-1.11 0-2.222.372-3.126 1.115-1.693 1.387-2.477 4.055-1.826 6.205.723 2.382 2.887 4.4 4.952 6.122 1.95-1.615 4.058-3.446 4.862-5.813"/>
        <path fill="#A7E6B2" d="M32.197 26.368c-1.177 0-2.135.959-2.135 2.134 0 1.177.958 2.136 2.135 2.136 1.178 0 2.135-.959 2.135-2.136 0-1.175-.957-2.134-2.135-2.134"/>
        <path fill="#FEFEFE" d="M23.67 6.095c0-1.696 1.38-3.076 3.076-3.076 1.698 0 3.078 1.38 3.078 3.076 0 1.695-1.38 3.075-3.078 3.075-1.695 0-3.075-1.38-3.075-3.075m7.337 2.17c.667-1.962-.003-4.473-1.526-5.722-.791-.65-1.764-.976-2.736-.976-.97 0-1.942.326-2.735.976-1.485 1.217-2.172 3.56-1.6 5.447.631 2.085 2.521 3.86 4.337 5.377 1.716-1.42 3.557-3.034 4.26-5.102"/>
        <path fill="#A7E6B2" d="M26.747 4.586c-.832 0-1.509.678-1.509 1.509 0 .831.677 1.507 1.509 1.507.831 0 1.508-.676 1.508-1.507 0-.831-.677-1.509-1.508-1.509M6.75 13.309c-.985 0-1.785.801-1.785 1.784s.8 1.784 1.785 1.784c.982 0 1.782-.801 1.782-1.784s-.8-1.784-1.782-1.784"/>
        <path fill="#FEFEFE" d="M32.197 32.206c-2.042 0-3.704-1.661-3.704-3.704 0-2.04 1.662-3.703 3.704-3.703 2.043 0 3.705 1.663 3.705 3.703 0 2.043-1.662 3.704-3.705 3.704m3.62-8.392c-1.008-.828-2.292-1.283-3.62-1.283-1.327 0-2.611.455-3.62 1.283-1.954 1.602-2.861 4.682-2.108 7.167.836 2.76 3.35 5.087 5.728 7.064 2.248-1.857 4.695-3.964 5.629-6.71.877-2.576-.006-5.88-2.009-7.521"/>
        <path fill="#00AB1C" d="M26.747 7.603c-.832 0-1.509-.677-1.509-1.509 0-.831.677-1.507 1.509-1.507.831 0 1.508.676 1.508 1.507 0 .832-.677 1.509-1.508 1.509m3.076-1.509c0-1.696-1.38-3.076-3.076-3.076-1.696 0-3.076 1.38-3.076 3.076 0 1.697 1.38 3.077 3.076 3.077 1.696 0 3.076-1.38 3.076-3.077M6.75 16.877c-.985 0-1.785-.801-1.785-1.784s.8-1.784 1.785-1.784c.982 0 1.782.801 1.782 1.784s-.8 1.784-1.782 1.784m3.352-1.784c0-1.849-1.504-3.353-3.352-3.353-1.85 0-3.355 1.504-3.355 3.353 0 1.848 1.505 3.353 3.355 3.353 1.848 0 3.352-1.505 3.352-3.353"/>
        <g transform="translate(0 6.988)">
            <mask id="prefix__b" fill="#fff">
                <use xlink:href="#prefix__a"/>
            </mask>
            <path fill="#00AB1C" d="M37.827 24.346c-.935 2.746-3.382 4.853-5.629 6.71-2.378-1.977-4.893-4.303-5.728-7.064-.755-2.483.152-5.564 2.107-7.167 1.008-.827 2.294-1.283 3.621-1.283 1.326 0 2.612.456 3.62 1.283 2.002 1.643 2.884 4.946 2.009 7.521M1.798 10.258c-.651-2.15.133-4.819 1.826-6.206.904-.744 2.016-1.114 3.126-1.114 1.108 0 2.22.37 3.125 1.114 1.733 1.421 2.497 4.283 1.737 6.514-.804 2.367-2.912 4.199-4.862 5.813-2.065-1.721-4.229-3.74-4.952-6.121m35.014 5.354c-2.674-2.193-6.555-2.193-9.23 0-2.455 2.014-3.555 5.73-2.614 8.834.817 2.699 2.904 4.929 5.084 6.842h-9.581L8.148 21.193l6.847-3.722c.885-.48.135-1.86-.751-1.379l-6.71 3.65v-1.976c2.07-1.708 4.588-3.825 5.563-6.694.971-2.856.014-6.396-2.227-8.234-2.388-1.959-5.855-1.959-8.242 0C.44 4.633-.54 7.946.297 10.712c.873 2.879 3.364 5.149 5.668 7.054v3.295c0 .231.107.46.286.607l13.443 11.011c.138.114.314.179.496.179h12.008c.277 0 .47-.155.673-.325 2.369-1.952 5.319-4.381 6.44-7.681 1.091-3.206.017-7.177-2.499-9.24" mask="url(#prefix__b)"/>
        </g>
        <path fill="#00AB1C" d="M32.197 30.638c-1.177 0-2.135-.958-2.135-2.135 0-1.176.958-2.135 2.135-2.135 1.178 0 2.135.959 2.135 2.135 0 1.177-.957 2.135-2.135 2.135m0-5.838c-2.042 0-3.704 1.661-3.704 3.703 0 2.043 1.662 3.704 3.704 3.704 2.043 0 3.705-1.661 3.705-3.704 0-2.042-1.662-3.703-3.705-3.703M22.41 7.99c-.57-1.887.117-4.23 1.6-5.447.794-.651 1.765-.975 2.737-.975.971 0 1.944.324 2.735.975 1.523 1.249 2.192 3.76 1.526 5.72-.704 2.07-2.544 3.685-4.26 5.105-1.816-1.518-3.707-3.293-4.337-5.378m-2.232 13.54c.128 0 .256-.031.375-.095l6.568-3.572c.253-.138.409-.401.409-.688v-2.42c1.85-1.525 4.087-3.417 4.961-5.986.877-2.58.01-5.777-2.015-7.439-2.16-1.772-5.299-1.772-7.46 0-1.979 1.623-2.866 4.615-2.108 7.115.782 2.578 2.998 4.608 5.053 6.31v1.953l-6.157 3.348c-.698.38-.418 1.474.374 1.474M17.4 22.951c.427 0 .784-.358.784-.784 0-.427-.357-.784-.784-.784-.413 0-.765.337-.783.75-.02.438.343.818.783.818"/>
    </g>
</svg>
