<svg xmlns="http://www.w3.org/2000/svg" xmlns:xlink="http://www.w3.org/1999/xlink" width="37" height="38" viewBox="0 0 37 38">
    <defs>
        <path id="prefix__a" d="M0.001 0.4L36.994 0.4 36.994 37.571 0.001 37.571z"/>
    </defs>
    <g fill="none" fill-rule="evenodd">
        <path fill="#FEFEFE" d="M18.494 2.269L3.077 14.046 33.987 14.046z"/>
        <path fill="#A7E6B2" d="M12.551 6.269L2.077 14.269 23.077 14.269z"/>
        <path fill="#FEFEFE" d="M7.189 36.02L29.717 36.02 29.717 33.253 7.189 33.253z"/>
        <g transform="translate(0 .029)">
            <mask id="prefix__b" fill="#fff">
                <use xlink:href="#prefix__a"/>
            </mask>
            <path fill="#A7E6B2" d="M6 24H13V36H6z" mask="url(#prefix__b)"/>
            <path fill="#FEFEFE" d="M5.449 19.943h3.244v-1.58H5.449v1.58zm5.69 0h3.244v-1.58h-3.244v1.58zm5.691 0h3.244v-1.58H16.83v1.58zm5.774 0h3.245v-1.58h-3.245v1.58zm5.692 0h3.244v-1.58h-3.244v1.58zM1.573 35.99h4.034V24.054c0-.471.32-.79.79-.79h24.109c.471 0 .791.319.791.79v11.937h4.11V15.6H1.573V35.99z" mask="url(#prefix__b)"/>
            <path fill="#FEFEFE" d="M7.189 27.534L29.717 27.534 29.717 24.844 7.189 24.844zM7.189 31.82L29.717 31.82 29.717 29.13 7.189 29.13z" mask="url(#prefix__b)"/>
            <path fill="#00AB1C" d="M35.406 35.991h-4.11V24.054c0-.471-.32-.79-.791-.79H6.396c-.47 0-.788.319-.788.79v11.937H1.572V15.6h33.834V35.99zM7.188 27.534h22.528v-2.69H7.188v2.69zm0 4.11h22.528v-2.53H7.188v2.53zm0 4.347h22.528v-2.767H7.188v2.767zM18.494 2.24l15.492 11.777H3.076L18.494 2.24zm.471-1.663c-.236-.236-.631-.236-.95 0L.439 14.017c-.234.159-.438.714-.438 1.026V36.78c0 .472.317.79.79.79h35.414c.471 0 .79-.318.79-.79V15.043c-.009-.333-.099-.714-.38-.973L18.965.577z" mask="url(#prefix__b)"/>
            <path fill="#00AB1C" d="M5.447 19.943L8.691 19.943 8.691 18.363 5.447 18.363zM11.139 19.943L14.383 19.943 14.383 18.363 11.139 18.363zM16.83 19.943L20.074 19.943 20.074 18.363 16.83 18.363zM22.604 19.943L25.849 19.943 25.849 18.363 22.604 18.363zM28.294 19.943L31.539 19.943 31.539 18.363 28.294 18.363z" mask="url(#prefix__b)"/>
        </g>
    </g>
</svg>
