<?xml version="1.0" standalone="no"?>
<!DOCTYPE svg PUBLIC "-//W3C//DTD SVG 20010904//EN"
 "http://www.w3.org/TR/2001/REC-SVG-20010904/DTD/svg10.dtd">
<svg version="1.0" xmlns="http://www.w3.org/2000/svg"
 width="512.000000pt" height="512.000000pt" viewBox="0 0 512.000000 512.000000"
 preserveAspectRatio="xMidYMid meet">
<metadata>
Created by potrace 1.11, written by Peter Selinger 2001-2013
</metadata>
<g transform="translate(0.000000,512.000000) scale(0.100000,-0.100000)"
fill="#000000" stroke="none">
<path d="M600 5105 c-290 -59 -516 -284 -585 -585 -13 -56 -15 -316 -14 -1965
l0 -1900 24 -90 c46 -178 153 -332 302 -433 76 -52 131 -77 222 -105 l76 -22
1925 0 c1059 0 1939 3 1955 6 290 62 505 259 591 544 18 57 19 156 21 1985 2
1866 1 1927 -18 2003 -57 233 -219 424 -438 517 -67 29 -80 33 -176 50 -29 5
-854 9 -1935 8 -1519 0 -1898 -2 -1950 -13z"/>
</g>
</svg>
